  0
SECTION
  2
HEADER
  9
$ACADVER
  1
AC1006
  9
$INSBASE
  10
0.000000
  20
0.000000
  30
0.000000
  9
$EXTMIN
  10
0.000000
  20
0.000000
  9
$EXTMAX
  10
1000.000000
  20
1000.000000
  0
ENDSEC
  0
SECTION
  2
BLOCKS
  0
BLOCK
  8
0
  2
BLK_1_1_M
  70
64
  10
0
  20
0
  0
TEXT
  8
1
  10
1144.163086
  20
260.555542
  50
0.000000
  51
0.000000
  71
0.000000
  1
PIECE NAME: BLK_1_1
  0
TEXT
  8
1
  10
1144.163086
  20
255.555542
  50
0.000000
  51
0.000000
  71
0.000000
  1
SIZE: M
  0
TEXT
  8
1
  10
1144.163086
  20
250.555542
  50
0.000000
  51
0.000000
  71
0.000000
  1
ANNOTATION: 
  0
TEXT
  8
1
  10
1144.163086
  20
245.555542
  50
0.000000
  51
0.000000
  71
0.000000
  1
QUANTITY: 1
  0
POLYLINE
  8
1
  66
1
  70
1
  250
2
  0
VERTEX
  8
1
  10
1039.460938
  20
-221.726318
  0
VERTEX
  8
1
  10
1038.084351
  20
-159.564514
  0
VERTEX
  8
1
  10
1036.686157
  20
-97.421814
  0
VERTEX
  8
1
  10
1035.244141
  20
-35.291412
  0
VERTEX
  8
1
  10
1033.735718
  20
26.833588
  0
VERTEX
  8
1
  10
1032.138306
  20
88.959991
  0
VERTEX
  8
1
  10
1030.429565
  20
151.094757
  0
VERTEX
  8
1
  10
1028.586914
  20
213.244690
  0
VERTEX
  8
1
  10
1028.098145
  20
228.638031
  0
VERTEX
  8
1
  10
1027.543213
  20
244.028870
  0
VERTEX
  8
1
  10
1026.661865
  20
264.544495
  0
VERTEX
  8
1
  10
1026.418823
  20
270.591614
  0
VERTEX
  8
1
  10
1026.168091
  20
276.636536
  0
VERTEX
  8
1
  10
1025.901367
  20
282.679077
  0
VERTEX
  8
1
  10
1025.610962
  20
288.719238
  0
VERTEX
  8
1
  10
1025.288452
  20
294.756775
  0
VERTEX
  8
1
  10
1024.926025
  20
300.791870
  0
VERTEX
  8
1
  10
1024.515625
  20
306.824219
  0
VERTEX
  8
1
  10
1024.048950
  20
312.853882
  0
VERTEX
  8
1
  10
1023.631287
  20
317.674133
  0
VERTEX
  8
1
  10
1023.175781
  20
322.490112
  0
VERTEX
  8
1
  10
1022.685547
  20
327.302307
  0
VERTEX
  8
1
  10
1022.163391
  20
332.111206
  0
VERTEX
  8
1
  10
1021.612305
  20
336.917114
  0
VERTEX
  8
1
  10
1021.035217
  20
341.720398
  0
VERTEX
  8
1
  10
1020.435120
  20
346.521545
  0
VERTEX
  8
1
  10
1019.814880
  20
351.320923
  0
VERTEX
  8
1
  10
1019.177490
  20
356.118958
  0
VERTEX
  8
1
  10
1018.525879
  20
360.916077
  0
VERTEX
  8
1
  10
1017.553040
  20
367.913940
  0
VERTEX
  8
1
  10
1016.550415
  20
374.904297
  0
VERTEX
  8
1
  10
1015.511230
  20
381.887695
  0
VERTEX
  8
1
  10
1014.428772
  20
388.864746
  0
VERTEX
  8
1
  10
1013.296387
  20
395.836060
  0
VERTEX
  8
1
  10
1011.952332
  20
403.703369
  0
VERTEX
  8
1
  10
1010.548889
  20
411.557922
  0
VERTEX
  8
1
  10
1009.097900
  20
419.403564
  0
VERTEX
  8
1
  10
1007.611145
  20
427.243835
  0
VERTEX
  8
1
  10
1006.100342
  20
435.082397
  0
VERTEX
  8
1
  10
990.798828
  20
513.432983
  0
VERTEX
  8
1
  10
989.314880
  20
521.276489
  0
VERTEX
  8
1
  10
987.857849
  20
529.122070
  0
VERTEX
  8
1
  10
986.437439
  20
536.973267
  0
VERTEX
  8
1
  10
985.063416
  20
544.833313
  0
VERTEX
  8
1
  10
983.745544
  20
552.705505
  0
VERTEX
  8
1
  10
982.695740
  20
559.276306
  0
VERTEX
  8
1
  10
981.689026
  20
565.851807
  0
VERTEX
  8
1
  10
980.721924
  20
572.432495
  0
VERTEX
  8
1
  10
979.791077
  20
579.018616
  0
VERTEX
  8
1
  10
978.892944
  20
585.610718
  0
VERTEX
  8
1
  10
978.024170
  20
592.209167
  0
VERTEX
  8
1
  10
977.301636
  20
597.866394
  0
VERTEX
  8
1
  10
976.602600
  20
603.524780
  0
VERTEX
  8
1
  10
975.930847
  20
609.185242
  0
VERTEX
  8
1
  10
975.290405
  20
614.848755
  0
VERTEX
  8
1
  10
974.685059
  20
620.516174
  0
VERTEX
  8
1
  10
974.118774
  20
626.188477
  0
VERTEX
  8
1
  10
973.595459
  20
631.866577
  0
VERTEX
  8
1
  10
973.166199
  20
636.952820
  0
VERTEX
  8
1
  10
972.773499
  20
642.041016
  0
VERTEX
  8
1
  10
972.416077
  20
647.131165
  0
VERTEX
  8
1
  10
972.092529
  20
652.223145
  0
VERTEX
  8
1
  10
971.801575
  20
657.317078
  0
VERTEX
  8
1
  10
971.541870
  20
662.412964
  0
VERTEX
  8
1
  10
971.312012
  20
667.510986
  0
VERTEX
  8
1
  10
971.110718
  20
672.610962
  0
VERTEX
  8
1
  10
970.936646
  20
677.712952
  0
VERTEX
  8
1
  10
970.723083
  20
685.365479
  0
VERTEX
  8
1
  10
970.558594
  20
693.016357
  0
VERTEX
  8
1
  10
970.433228
  20
700.666748
  0
VERTEX
  8
1
  10
970.337158
  20
708.317505
  0
VERTEX
  8
1
  10
970.260498
  20
715.969849
  0
VERTEX
  8
1
  10
970.193359
  20
723.624878
  0
VERTEX
  8
1
  10
980.841187
  20
724.911194
  0
VERTEX
  8
1
  10
991.486511
  20
726.191162
  0
VERTEX
  8
1
  10
1002.131409
  20
727.458923
  0
VERTEX
  8
1
  10
1012.777710
  20
728.708679
  0
VERTEX
  8
1
  10
1023.427551
  20
729.934265
  0
VERTEX
  8
1
  10
1034.082886
  20
731.130005
  0
VERTEX
  8
1
  10
1044.745728
  20
732.289856
  0
VERTEX
  8
1
  10
1050.489990
  20
732.897461
  0
VERTEX
  8
1
  10
1056.234619
  20
733.492126
  0
VERTEX
  8
1
  10
1061.979736
  20
734.073303
  0
VERTEX
  8
1
  10
1067.725708
  20
734.640381
  0
VERTEX
  8
1
  10
1073.472412
  20
735.192810
  0
VERTEX
  8
1
  10
1079.220337
  20
735.729919
  0
VERTEX
  8
1
  10
1084.969604
  20
736.251221
  0
VERTEX
  8
1
  10
1090.720215
  20
736.756042
  0
VERTEX
  8
1
  10
1096.472534
  20
737.243774
  0
VERTEX
  8
1
  10
1102.226807
  20
737.713928
  0
VERTEX
  8
1
  10
1107.983032
  20
738.165894
  0
VERTEX
  8
1
  10
1113.741577
  20
738.598938
  0
VERTEX
  8
1
  10
1119.502441
  20
739.012695
  0
VERTEX
  8
1
  10
1127.044067
  20
739.524536
  0
VERTEX
  8
1
  10
1134.585693
  20
740.005676
  0
VERTEX
  8
1
  10
1142.127808
  20
740.459900
  0
VERTEX
  8
1
  10
1149.670654
  20
740.891113
  0
VERTEX
  8
1
  10
1157.214355
  20
741.303223
  0
VERTEX
  8
1
  10
1164.759521
  20
741.699951
  0
VERTEX
  8
1
  10
1172.306152
  20
742.085327
  0
VERTEX
  8
1
  10
1179.854614
  20
742.463196
  0
VERTEX
  8
1
  10
1187.405273
  20
742.837402
  0
VERTEX
  8
1
  10
1188.909302
  20
734.199280
  0
VERTEX
  8
1
  10
1190.405640
  20
725.562073
  0
VERTEX
  8
1
  10
1191.888184
  20
716.923828
  0
VERTEX
  8
1
  10
1193.350830
  20
708.282227
  0
VERTEX
  8
1
  10
1194.787476
  20
699.635437
  0
VERTEX
  8
1
  10
1196.191895
  20
690.981018
  0
VERTEX
  8
1
  10
1197.558105
  20
682.317017
  0
VERTEX
  8
1
  10
1198.225342
  20
677.981873
  0
VERTEX
  8
1
  10
1198.885254
  20
673.646057
  0
VERTEX
  8
1
  10
1199.542236
  20
669.310303
  0
VERTEX
  8
1
  10
1200.200684
  20
664.975342
  0
VERTEX
  8
1
  10
1200.865234
  20
660.641785
  0
VERTEX
  8
1
  10
1201.540283
  20
656.310425
  0
VERTEX
  8
1
  10
1202.230225
  20
651.981995
  0
VERTEX
  8
1
  10
1202.939819
  20
647.657166
  0
VERTEX
  8
1
  10
1203.673462
  20
643.336670
  0
VERTEX
  8
1
  10
1204.435425
  20
639.021240
  0
VERTEX
  8
1
  10
1205.230469
  20
634.711609
  0
VERTEX
  8
1
  10
1206.062988
  20
630.408447
  0
VERTEX
  8
1
  10
1206.937256
  20
626.112549
  0
VERTEX
  8
1
  10
1207.858154
  20
621.824463
  0
VERTEX
  8
1
  10
1208.679321
  20
618.199036
  0
VERTEX
  8
1
  10
1209.549438
  20
614.586182
  0
VERTEX
  8
1
  10
1210.482178
  20
610.990173
  0
VERTEX
  8
1
  10
1211.491455
  20
607.415100
  0
VERTEX
  8
1
  10
1212.590820
  20
603.865173
  0
VERTEX
  8
1
  10
1213.534912
  20
601.073120
  0
VERTEX
  8
1
  10
1214.549805
  20
598.306702
  0
VERTEX
  8
1
  10
1215.642822
  20
595.570557
  0
VERTEX
  8
1
  10
1216.821411
  20
592.869507
  0
VERTEX
  8
1
  10
1218.092529
  20
590.208191
  0
VERTEX
  8
1
  10
1219.210693
  20
588.055176
  0
VERTEX
  8
1
  10
1220.396484
  20
585.938660
  0
VERTEX
  8
1
  10
1221.651489
  20
583.863220
  0
VERTEX
  8
1
  10
1222.977051
  20
581.833435
  0
VERTEX
  8
1
  10
1224.375000
  20
579.854004
  0
VERTEX
  8
1
  10
1225.846436
  20
577.929504
  0
VERTEX
  8
1
  10
1227.514160
  20
575.922241
  0
VERTEX
  8
1
  10
1229.261597
  20
573.984009
  0
VERTEX
  8
1
  10
1231.082886
  20
572.112976
  0
VERTEX
  8
1
  10
1232.972046
  20
570.307190
  0
VERTEX
  8
1
  10
1234.923218
  20
568.564819
  0
VERTEX
  8
1
  10
1236.930420
  20
566.883972
  0
VERTEX
  8
1
  10
1238.990967
  20
565.262451
  0
VERTEX
  8
1
  10
1241.099854
  20
563.707703
  0
VERTEX
  8
1
  10
1243.257324
  20
562.225464
  0
VERTEX
  8
1
  10
1245.463135
  20
560.821106
  0
VERTEX
  8
1
  10
1247.717407
  20
559.500183
  0
VERTEX
  8
1
  10
1250.020020
  20
558.268311
  0
VERTEX
  8
1
  10
1252.434570
  20
557.099426
  0
VERTEX
  8
1
  10
1254.892578
  20
556.023865
  0
VERTEX
  8
1
  10
1257.388916
  20
555.033691
  0
VERTEX
  8
1
  10
1259.917847
  20
554.120972
  0
VERTEX
  8
1
  10
1262.473877
  20
553.277954
  0
VERTEX
  8
1
  10
1265.051758
  20
552.496460
  0
VERTEX
  8
1
  10
1267.401733
  20
551.836365
  0
VERTEX
  8
1
  10
1269.762939
  20
551.221436
  0
VERTEX
  8
1
  10
1272.134277
  20
550.651733
  0
VERTEX
  8
1
  10
1274.515259
  20
550.127502
  0
VERTEX
  8
1
  10
1276.904785
  20
549.648682
  0
VERTEX
  8
1
  10
1279.302124
  20
549.215637
  0
VERTEX
  8
1
  10
1281.706299
  20
548.828308
  0
VERTEX
  8
1
  10
1284.116577
  20
548.486938
  0
VERTEX
  8
1
  10
1286.532104
  20
548.191650
  0
VERTEX
  8
1
  10
1288.951904
  20
547.942566
  0
VERTEX
  8
1
  10
1291.375244
  20
547.739807
  0
VERTEX
  8
1
  10
1295.188843
  20
547.513000
  0
VERTEX
  8
1
  10
1299.006104
  20
547.385681
  0
VERTEX
  8
1
  10
1302.826416
  20
547.341248
  0
VERTEX
  8
1
  10
1306.649780
  20
547.363037
  0
VERTEX
  8
1
  10
1310.475464
  20
547.434204
  0
VERTEX
  8
1
  10
1314.303345
  20
547.538025
  0
VERTEX
  8
1
  10
1318.132813
  20
547.657959
  0
VERTEX
  8
1
  10
1315.959229
  20
543.529053
  0
VERTEX
  8
1
  10
1313.788940
  20
539.399536
  0
VERTEX
  8
1
  10
1311.625000
  20
535.267883
  0
VERTEX
  8
1
  10
1309.470215
  20
531.132263
  0
VERTEX
  8
1
  10
1307.327637
  20
526.991333
  0
VERTEX
  8
1
  10
1305.200439
  20
522.843262
  0
VERTEX
  8
1
  10
1303.091553
  20
518.686523
  0
VERTEX
  8
1
  10
1301.003784
  20
514.519531
  0
VERTEX
  8
1
  10
1298.940308
  20
510.340637
  0
VERTEX
  8
1
  10
1296.904175
  20
506.148254
  0
VERTEX
  8
1
  10
1294.898193
  20
501.940674
  0
VERTEX
  8
1
  10
1292.925415
  20
497.716309
  0
VERTEX
  8
1
  10
1290.988892
  20
493.473694
  0
VERTEX
  8
1
  10
1289.687256
  20
490.562134
  0
VERTEX
  8
1
  10
1288.404297
  20
487.642395
  0
VERTEX
  8
1
  10
1287.139893
  20
484.714600
  0
VERTEX
  8
1
  10
1285.894043
  20
481.778687
  0
VERTEX
  8
1
  10
1284.666748
  20
478.835083
  0
VERTEX
  8
1
  10
1283.458008
  20
475.883728
  0
VERTEX
  8
1
  10
1282.267822
  20
472.924927
  0
VERTEX
  8
1
  10
1281.096191
  20
469.958740
  0
VERTEX
  8
1
  10
1279.943115
  20
466.985168
  0
VERTEX
  8
1
  10
1278.808472
  20
464.004578
  0
VERTEX
  8
1
  10
1277.692505
  20
461.017029
  0
VERTEX
  8
1
  10
1276.594971
  20
458.022705
  0
VERTEX
  8
1
  10
1275.515991
  20
455.021667
  0
VERTEX
  8
1
  10
1274.455566
  20
452.014038
  0
VERTEX
  8
1
  10
1273.413574
  20
449.000061
  0
VERTEX
  8
1
  10
1272.390015
  20
445.979797
  0
VERTEX
  8
1
  10
1271.385010
  20
442.953552
  0
VERTEX
  8
1
  10
1270.398560
  20
439.921265
  0
VERTEX
  8
1
  10
1269.430420
  20
436.883179
  0
VERTEX
  8
1
  10
1266.563599
  20
427.550842
  0
VERTEX
  8
1
  10
1263.766479
  20
418.199646
  0
VERTEX
  8
1
  10
1260.931641
  20
408.850525
  0
VERTEX
  8
1
  10
1259.683838
  20
404.850586
  0
VERTEX
  8
1
  10
1258.429321
  20
400.853333
  0
VERTEX
  8
1
  10
1257.187256
  20
396.853882
  0
VERTEX
  8
1
  10
1255.976318
  20
392.847168
  0
VERTEX
  8
1
  10
1254.816040
  20
388.828491
  0
VERTEX
  8
1
  10
1253.725098
  20
384.792847
  0
VERTEX
  8
1
  10
1252.722656
  20
380.735352
  0
VERTEX
  8
1
  10
1251.928955
  20
377.162842
  0
VERTEX
  8
1
  10
1251.207520
  20
373.574646
  0
VERTEX
  8
1
  10
1250.547852
  20
369.973022
  0
VERTEX
  8
1
  10
1249.938965
  20
366.360168
  0
VERTEX
  8
1
  10
1249.370361
  20
362.738342
  0
VERTEX
  8
1
  10
1248.831177
  20
359.109802
  0
VERTEX
  8
1
  10
1248.310791
  20
355.476746
  0
VERTEX
  8
1
  10
1247.798340
  20
351.841553
  0
VERTEX
  8
1
  10
1247.031250
  20
346.403320
  0
VERTEX
  8
1
  10
1246.268555
  20
340.968201
  0
VERTEX
  8
1
  10
1245.519531
  20
335.534607
  0
VERTEX
  8
1
  10
1244.793579
  20
330.100525
  0
VERTEX
  8
1
  10
1244.099854
  20
324.664429
  0
VERTEX
  8
1
  10
1243.447754
  20
319.224548
  0
VERTEX
  8
1
  10
1242.846558
  20
313.779175
  0
VERTEX
  8
1
  10
1242.305664
  20
308.326416
  0
VERTEX
  8
1
  10
1241.881104
  20
303.474182
  0
VERTEX
  8
1
  10
1241.506104
  20
298.618225
  0
VERTEX
  8
1
  10
1241.174194
  20
293.758789
  0
VERTEX
  8
1
  10
1240.879272
  20
288.896118
  0
VERTEX
  8
1
  10
1240.615112
  20
284.030518
  0
VERTEX
  8
1
  10
1240.375488
  20
279.162231
  0
VERTEX
  8
1
  10
1240.154175
  20
274.291626
  0
VERTEX
  8
1
  10
1239.944946
  20
269.418884
  0
VERTEX
  8
1
  10
1239.741699
  20
264.544373
  0
VERTEX
  8
1
  10
1226.941406
  20
-221.725708
  0
SEQEND
  0
POINT
  8
2
  10
1039.460938
  20
-221.726318
  0
POINT
  8
2
  10
1026.661865
  20
264.544495
  0
POINT
  8
2
  10
970.193359
  20
723.624878
  0
POINT
  8
2
  10
1187.405273
  20
742.837402
  0
POINT
  8
2
  10
1318.132813
  20
547.657959
  0
POINT
  8
2
  10
1239.741699
  20
264.544373
  0
POINT
  8
2
  10
1226.941406
  20
-221.725708
  0
POINT
  8
3
  10
1038.084351
  20
-159.564514
  0
POINT
  8
3
  10
1036.686157
  20
-97.421814
  0
POINT
  8
3
  10
1035.244141
  20
-35.291412
  0
POINT
  8
3
  10
1033.735718
  20
26.833588
  0
POINT
  8
3
  10
1032.138306
  20
88.959991
  0
POINT
  8
3
  10
1030.429565
  20
151.094757
  0
POINT
  8
3
  10
1028.586914
  20
213.244690
  0
POINT
  8
3
  10
1028.098145
  20
228.638031
  0
POINT
  8
3
  10
1027.543213
  20
244.028870
  0
POINT
  8
3
  10
1026.418823
  20
270.591614
  0
POINT
  8
3
  10
1026.168091
  20
276.636536
  0
POINT
  8
3
  10
1025.901367
  20
282.679077
  0
POINT
  8
3
  10
1025.610962
  20
288.719238
  0
POINT
  8
3
  10
1025.288452
  20
294.756775
  0
POINT
  8
3
  10
1024.926025
  20
300.791870
  0
POINT
  8
3
  10
1024.515625
  20
306.824219
  0
POINT
  8
3
  10
1024.048950
  20
312.853882
  0
POINT
  8
3
  10
1023.631287
  20
317.674133
  0
POINT
  8
3
  10
1023.175781
  20
322.490112
  0
POINT
  8
3
  10
1022.685547
  20
327.302307
  0
POINT
  8
3
  10
1022.163391
  20
332.111206
  0
POINT
  8
3
  10
1021.612305
  20
336.917114
  0
POINT
  8
3
  10
1021.035217
  20
341.720398
  0
POINT
  8
3
  10
1020.435120
  20
346.521545
  0
POINT
  8
3
  10
1019.814880
  20
351.320923
  0
POINT
  8
3
  10
1019.177490
  20
356.118958
  0
POINT
  8
3
  10
1018.525879
  20
360.916077
  0
POINT
  8
3
  10
1017.553040
  20
367.913940
  0
POINT
  8
3
  10
1016.550415
  20
374.904297
  0
POINT
  8
3
  10
1015.511230
  20
381.887695
  0
POINT
  8
3
  10
1014.428772
  20
388.864746
  0
POINT
  8
3
  10
1013.296387
  20
395.836060
  0
POINT
  8
3
  10
1011.952332
  20
403.703369
  0
POINT
  8
3
  10
1010.548889
  20
411.557922
  0
POINT
  8
3
  10
1009.097900
  20
419.403564
  0
POINT
  8
3
  10
1007.611145
  20
427.243835
  0
POINT
  8
3
  10
1006.100342
  20
435.082397
  0
POINT
  8
3
  10
990.798828
  20
513.432983
  0
POINT
  8
3
  10
989.314880
  20
521.276489
  0
POINT
  8
3
  10
987.857849
  20
529.122070
  0
POINT
  8
3
  10
986.437439
  20
536.973267
  0
POINT
  8
3
  10
985.063416
  20
544.833313
  0
POINT
  8
3
  10
983.745544
  20
552.705505
  0
POINT
  8
3
  10
982.695740
  20
559.276306
  0
POINT
  8
3
  10
981.689026
  20
565.851807
  0
POINT
  8
3
  10
980.721924
  20
572.432495
  0
POINT
  8
3
  10
979.791077
  20
579.018616
  0
POINT
  8
3
  10
978.892944
  20
585.610718
  0
POINT
  8
3
  10
978.024170
  20
592.209167
  0
POINT
  8
3
  10
977.301636
  20
597.866394
  0
POINT
  8
3
  10
976.602600
  20
603.524780
  0
POINT
  8
3
  10
975.930847
  20
609.185242
  0
POINT
  8
3
  10
975.290405
  20
614.848755
  0
POINT
  8
3
  10
974.685059
  20
620.516174
  0
POINT
  8
3
  10
974.118774
  20
626.188477
  0
POINT
  8
3
  10
973.595459
  20
631.866577
  0
POINT
  8
3
  10
973.166199
  20
636.952820
  0
POINT
  8
3
  10
972.773499
  20
642.041016
  0
POINT
  8
3
  10
972.416077
  20
647.131165
  0
POINT
  8
3
  10
972.092529
  20
652.223145
  0
POINT
  8
3
  10
971.801575
  20
657.317078
  0
POINT
  8
3
  10
971.541870
  20
662.412964
  0
POINT
  8
3
  10
971.312012
  20
667.510986
  0
POINT
  8
3
  10
971.110718
  20
672.610962
  0
POINT
  8
3
  10
970.936646
  20
677.712952
  0
POINT
  8
3
  10
970.723083
  20
685.365479
  0
POINT
  8
3
  10
970.558594
  20
693.016357
  0
POINT
  8
3
  10
970.433228
  20
700.666748
  0
POINT
  8
3
  10
970.337158
  20
708.317505
  0
POINT
  8
3
  10
970.260498
  20
715.969849
  0
POINT
  8
3
  10
980.841187
  20
724.911194
  0
POINT
  8
3
  10
991.486511
  20
726.191162
  0
POINT
  8
3
  10
1002.131409
  20
727.458923
  0
POINT
  8
3
  10
1012.777710
  20
728.708679
  0
POINT
  8
3
  10
1023.427551
  20
729.934265
  0
POINT
  8
3
  10
1034.082886
  20
731.130005
  0
POINT
  8
3
  10
1044.745728
  20
732.289856
  0
POINT
  8
3
  10
1050.489990
  20
732.897461
  0
POINT
  8
3
  10
1056.234619
  20
733.492126
  0
POINT
  8
3
  10
1061.979736
  20
734.073303
  0
POINT
  8
3
  10
1067.725708
  20
734.640381
  0
POINT
  8
3
  10
1073.472412
  20
735.192810
  0
POINT
  8
3
  10
1079.220337
  20
735.729919
  0
POINT
  8
3
  10
1084.969604
  20
736.251221
  0
POINT
  8
3
  10
1090.720215
  20
736.756042
  0
POINT
  8
3
  10
1096.472534
  20
737.243774
  0
POINT
  8
3
  10
1102.226807
  20
737.713928
  0
POINT
  8
3
  10
1107.983032
  20
738.165894
  0
POINT
  8
3
  10
1113.741577
  20
738.598938
  0
POINT
  8
3
  10
1119.502441
  20
739.012695
  0
POINT
  8
3
  10
1127.044067
  20
739.524536
  0
POINT
  8
3
  10
1134.585693
  20
740.005676
  0
POINT
  8
3
  10
1142.127808
  20
740.459900
  0
POINT
  8
3
  10
1149.670654
  20
740.891113
  0
POINT
  8
3
  10
1157.214355
  20
741.303223
  0
POINT
  8
3
  10
1164.759521
  20
741.699951
  0
POINT
  8
3
  10
1172.306152
  20
742.085327
  0
POINT
  8
3
  10
1179.854614
  20
742.463196
  0
POINT
  8
3
  10
1188.909302
  20
734.199280
  0
POINT
  8
3
  10
1190.405640
  20
725.562073
  0
POINT
  8
3
  10
1191.888184
  20
716.923828
  0
POINT
  8
3
  10
1193.350830
  20
708.282227
  0
POINT
  8
3
  10
1194.787476
  20
699.635437
  0
POINT
  8
3
  10
1196.191895
  20
690.981018
  0
POINT
  8
3
  10
1197.558105
  20
682.317017
  0
POINT
  8
3
  10
1198.225342
  20
677.981873
  0
POINT
  8
3
  10
1198.885254
  20
673.646057
  0
POINT
  8
3
  10
1199.542236
  20
669.310303
  0
POINT
  8
3
  10
1200.200684
  20
664.975342
  0
POINT
  8
3
  10
1200.865234
  20
660.641785
  0
POINT
  8
3
  10
1201.540283
  20
656.310425
  0
POINT
  8
3
  10
1202.230225
  20
651.981995
  0
POINT
  8
3
  10
1202.939819
  20
647.657166
  0
POINT
  8
3
  10
1203.673462
  20
643.336670
  0
POINT
  8
3
  10
1204.435425
  20
639.021240
  0
POINT
  8
3
  10
1205.230469
  20
634.711609
  0
POINT
  8
3
  10
1206.062988
  20
630.408447
  0
POINT
  8
3
  10
1206.937256
  20
626.112549
  0
POINT
  8
3
  10
1207.858154
  20
621.824463
  0
POINT
  8
3
  10
1208.679321
  20
618.199036
  0
POINT
  8
3
  10
1209.549438
  20
614.586182
  0
POINT
  8
3
  10
1210.482178
  20
610.990173
  0
POINT
  8
3
  10
1211.491455
  20
607.415100
  0
POINT
  8
3
  10
1212.590820
  20
603.865173
  0
POINT
  8
3
  10
1213.534912
  20
601.073120
  0
POINT
  8
3
  10
1214.549805
  20
598.306702
  0
POINT
  8
3
  10
1215.642822
  20
595.570557
  0
POINT
  8
3
  10
1216.821411
  20
592.869507
  0
POINT
  8
3
  10
1218.092529
  20
590.208191
  0
POINT
  8
3
  10
1219.210693
  20
588.055176
  0
POINT
  8
3
  10
1220.396484
  20
585.938660
  0
POINT
  8
3
  10
1221.651489
  20
583.863220
  0
POINT
  8
3
  10
1222.977051
  20
581.833435
  0
POINT
  8
3
  10
1224.375000
  20
579.854004
  0
POINT
  8
3
  10
1225.846436
  20
577.929504
  0
POINT
  8
3
  10
1227.514160
  20
575.922241
  0
POINT
  8
3
  10
1229.261597
  20
573.984009
  0
POINT
  8
3
  10
1231.082886
  20
572.112976
  0
POINT
  8
3
  10
1232.972046
  20
570.307190
  0
POINT
  8
3
  10
1234.923218
  20
568.564819
  0
POINT
  8
3
  10
1236.930420
  20
566.883972
  0
POINT
  8
3
  10
1238.990967
  20
565.262451
  0
POINT
  8
3
  10
1241.099854
  20
563.707703
  0
POINT
  8
3
  10
1243.257324
  20
562.225464
  0
POINT
  8
3
  10
1245.463135
  20
560.821106
  0
POINT
  8
3
  10
1247.717407
  20
559.500183
  0
POINT
  8
3
  10
1250.020020
  20
558.268311
  0
POINT
  8
3
  10
1252.434570
  20
557.099426
  0
POINT
  8
3
  10
1254.892578
  20
556.023865
  0
POINT
  8
3
  10
1257.388916
  20
555.033691
  0
POINT
  8
3
  10
1259.917847
  20
554.120972
  0
POINT
  8
3
  10
1262.473877
  20
553.277954
  0
POINT
  8
3
  10
1265.051758
  20
552.496460
  0
POINT
  8
3
  10
1267.401733
  20
551.836365
  0
POINT
  8
3
  10
1269.762939
  20
551.221436
  0
POINT
  8
3
  10
1272.134277
  20
550.651733
  0
POINT
  8
3
  10
1274.515259
  20
550.127502
  0
POINT
  8
3
  10
1276.904785
  20
549.648682
  0
POINT
  8
3
  10
1279.302124
  20
549.215637
  0
POINT
  8
3
  10
1281.706299
  20
548.828308
  0
POINT
  8
3
  10
1284.116577
  20
548.486938
  0
POINT
  8
3
  10
1286.532104
  20
548.191650
  0
POINT
  8
3
  10
1288.951904
  20
547.942566
  0
POINT
  8
3
  10
1291.375244
  20
547.739807
  0
POINT
  8
3
  10
1295.188843
  20
547.513000
  0
POINT
  8
3
  10
1299.006104
  20
547.385681
  0
POINT
  8
3
  10
1302.826416
  20
547.341248
  0
POINT
  8
3
  10
1306.649780
  20
547.363037
  0
POINT
  8
3
  10
1310.475464
  20
547.434204
  0
POINT
  8
3
  10
1314.303345
  20
547.538025
  0
POINT
  8
3
  10
1315.959229
  20
543.529053
  0
POINT
  8
3
  10
1313.788940
  20
539.399536
  0
POINT
  8
3
  10
1311.625000
  20
535.267883
  0
POINT
  8
3
  10
1309.470215
  20
531.132263
  0
POINT
  8
3
  10
1307.327637
  20
526.991333
  0
POINT
  8
3
  10
1305.200439
  20
522.843262
  0
POINT
  8
3
  10
1303.091553
  20
518.686523
  0
POINT
  8
3
  10
1301.003784
  20
514.519531
  0
POINT
  8
3
  10
1298.940308
  20
510.340637
  0
POINT
  8
3
  10
1296.904175
  20
506.148254
  0
POINT
  8
3
  10
1294.898193
  20
501.940674
  0
POINT
  8
3
  10
1292.925415
  20
497.716309
  0
POINT
  8
3
  10
1290.988892
  20
493.473694
  0
POINT
  8
3
  10
1289.687256
  20
490.562134
  0
POINT
  8
3
  10
1288.404297
  20
487.642395
  0
POINT
  8
3
  10
1287.139893
  20
484.714600
  0
POINT
  8
3
  10
1285.894043
  20
481.778687
  0
POINT
  8
3
  10
1284.666748
  20
478.835083
  0
POINT
  8
3
  10
1283.458008
  20
475.883728
  0
POINT
  8
3
  10
1282.267822
  20
472.924927
  0
POINT
  8
3
  10
1281.096191
  20
469.958740
  0
POINT
  8
3
  10
1279.943115
  20
466.985168
  0
POINT
  8
3
  10
1278.808472
  20
464.004578
  0
POINT
  8
3
  10
1277.692505
  20
461.017029
  0
POINT
  8
3
  10
1276.594971
  20
458.022705
  0
POINT
  8
3
  10
1275.515991
  20
455.021667
  0
POINT
  8
3
  10
1274.455566
  20
452.014038
  0
POINT
  8
3
  10
1273.413574
  20
449.000061
  0
POINT
  8
3
  10
1272.390015
  20
445.979797
  0
POINT
  8
3
  10
1271.385010
  20
442.953552
  0
POINT
  8
3
  10
1270.398560
  20
439.921265
  0
POINT
  8
3
  10
1269.430420
  20
436.883179
  0
POINT
  8
3
  10
1266.563599
  20
427.550842
  0
POINT
  8
3
  10
1263.766479
  20
418.199646
  0
POINT
  8
3
  10
1260.931641
  20
408.850525
  0
POINT
  8
3
  10
1259.683838
  20
404.850586
  0
POINT
  8
3
  10
1258.429321
  20
400.853333
  0
POINT
  8
3
  10
1257.187256
  20
396.853882
  0
POINT
  8
3
  10
1255.976318
  20
392.847168
  0
POINT
  8
3
  10
1254.816040
  20
388.828491
  0
POINT
  8
3
  10
1253.725098
  20
384.792847
  0
POINT
  8
3
  10
1252.722656
  20
380.735352
  0
POINT
  8
3
  10
1251.928955
  20
377.162842
  0
POINT
  8
3
  10
1251.207520
  20
373.574646
  0
POINT
  8
3
  10
1250.547852
  20
369.973022
  0
POINT
  8
3
  10
1249.938965
  20
366.360168
  0
POINT
  8
3
  10
1249.370361
  20
362.738342
  0
POINT
  8
3
  10
1248.831177
  20
359.109802
  0
POINT
  8
3
  10
1248.310791
  20
355.476746
  0
POINT
  8
3
  10
1247.798340
  20
351.841553
  0
POINT
  8
3
  10
1247.031250
  20
346.403320
  0
POINT
  8
3
  10
1246.268555
  20
340.968201
  0
POINT
  8
3
  10
1245.519531
  20
335.534607
  0
POINT
  8
3
  10
1244.793579
  20
330.100525
  0
POINT
  8
3
  10
1244.099854
  20
324.664429
  0
POINT
  8
3
  10
1243.447754
  20
319.224548
  0
POINT
  8
3
  10
1242.846558
  20
313.779175
  0
POINT
  8
3
  10
1242.305664
  20
308.326416
  0
POINT
  8
3
  10
1241.881104
  20
303.474182
  0
POINT
  8
3
  10
1241.506104
  20
298.618225
  0
POINT
  8
3
  10
1241.174194
  20
293.758789
  0
POINT
  8
3
  10
1240.879272
  20
288.896118
  0
POINT
  8
3
  10
1240.615112
  20
284.030518
  0
POINT
  8
3
  10
1240.375488
  20
279.162231
  0
POINT
  8
3
  10
1240.154175
  20
274.291626
  0
POINT
  8
3
  10
1239.944946
  20
269.418884
  0
LINE
  8
7
  10
1144.163086
  20
170.555542
  11
1144.163086
  21
350.555542
  0
POLYLINE
  8
8
  66
1
  70
1
  250
0
  0
VERTEX
  8
8
  10
1039.460938
  20
-221.726318
  0
VERTEX
  8
8
  10
1028.586914
  20
213.244690
  0
VERTEX
  8
8
  10
1027.543213
  20
244.028870
  0
VERTEX
  8
8
  10
1026.661865
  20
264.544495
  0
VERTEX
  8
8
  10
1026.234619
  20
276.830688
  0
VERTEX
  8
8
  10
1025.580322
  20
289.103394
  0
VERTEX
  8
8
  10
1025.058960
  20
298.310150
  0
VERTEX
  8
8
  10
1024.458374
  20
307.510986
  0
VERTEX
  8
8
  10
1023.699890
  20
316.695190
  0
VERTEX
  8
8
  10
1022.844727
  20
325.872192
  0
VERTEX
  8
8
  10
1018.525818
  20
360.916077
  0
VERTEX
  8
8
  10
1013.296326
  20
395.836060
  0
VERTEX
  8
8
  10
1006.100342
  20
435.082397
  0
VERTEX
  8
8
  10
990.798828
  20
513.432983
  0
VERTEX
  8
8
  10
983.745544
  20
552.705505
  0
VERTEX
  8
8
  10
978.024109
  20
592.209167
  0
VERTEX
  8
8
  10
973.595459
  20
631.866577
  0
VERTEX
  8
8
  10
971.490967
  20
665.040283
  0
VERTEX
  8
8
  10
970.344727
  20
698.284668
  0
VERTEX
  8
8
  10
970.193359
  20
723.624878
  0
VERTEX
  8
8
  10
979.519531
  20
724.878906
  0
VERTEX
  8
8
  10
993.376953
  20
726.659058
  0
VERTEX
  8
8
  10
1021.832703
  20
729.858582
  0
VERTEX
  8
8
  10
1053.793213
  20
733.215759
  0
VERTEX
  8
8
  10
1087.626221
  20
736.409668
  0
VERTEX
  8
8
  10
1119.502441
  20
739.012695
  0
VERTEX
  8
8
  10
1153.453857
  20
741.142090
  0
VERTEX
  8
8
  10
1187.405273
  20
742.837402
  0
VERTEX
  8
8
  10
1193.710083
  20
705.475891
  0
VERTEX
  8
8
  10
1199.001953
  20
673.202393
  0
VERTEX
  8
8
  10
1201.564209
  20
656.674194
  0
VERTEX
  8
8
  10
1204.387695
  20
640.196960
  0
VERTEX
  8
8
  10
1205.477539
  20
634.059570
  0
VERTEX
  8
8
  10
1206.617920
  20
627.933594
  0
VERTEX
  8
8
  10
1207.858154
  20
621.824463
  0
VERTEX
  8
8
  10
1208.663940
  20
618.195984
  0
VERTEX
  8
8
  10
1209.530518
  20
614.582520
  0
VERTEX
  8
8
  10
1210.467529
  20
610.987305
  0
VERTEX
  8
8
  10
1211.484375
  20
607.413757
  0
VERTEX
  8
8
  10
1212.590820
  20
603.865173
  0
VERTEX
  8
8
  10
1213.537720
  20
601.073730
  0
VERTEX
  8
8
  10
1214.553345
  20
598.307373
  0
VERTEX
  8
8
  10
1215.645752
  20
595.571045
  0
VERTEX
  8
8
  10
1216.822876
  20
592.869690
  0
VERTEX
  8
8
  10
1218.092529
  20
590.208191
  0
VERTEX
  8
8
  10
1219.209961
  20
588.055054
  0
VERTEX
  8
8
  10
1220.395508
  20
585.938477
  0
VERTEX
  8
8
  10
1221.650513
  20
583.863037
  0
VERTEX
  8
8
  10
1222.976440
  20
581.833313
  0
VERTEX
  8
8
  10
1224.374634
  20
579.854004
  0
VERTEX
  8
8
  10
1225.846436
  20
577.929504
  0
VERTEX
  8
8
  10
1227.514404
  20
575.922241
  0
VERTEX
  8
8
  10
1229.261963
  20
573.983887
  0
VERTEX
  8
8
  10
1231.083252
  20
572.112793
  0
VERTEX
  8
8
  10
1232.972412
  20
570.307007
  0
VERTEX
  8
8
  10
1234.923462
  20
568.564697
  0
VERTEX
  8
8
  10
1236.930420
  20
566.883972
  0
VERTEX
  8
8
  10
1238.990601
  20
565.262695
  0
VERTEX
  8
8
  10
1241.099365
  20
563.708252
  0
VERTEX
  8
8
  10
1243.256592
  20
562.226074
  0
VERTEX
  8
8
  10
1245.462402
  20
560.821777
  0
VERTEX
  8
8
  10
1247.716919
  20
559.500610
  0
VERTEX
  8
8
  10
1250.020020
  20
558.268311
  0
VERTEX
  8
8
  10
1252.435303
  20
557.098572
  0
VERTEX
  8
8
  10
1254.894287
  20
556.021973
  0
VERTEX
  8
8
  10
1257.391113
  20
555.030945
  0
VERTEX
  8
8
  10
1259.920166
  20
554.118042
  0
VERTEX
  8
8
  10
1262.475586
  20
553.275757
  0
VERTEX
  8
8
  10
1265.051758
  20
552.496460
  0
VERTEX
  8
8
  10
1268.203857
  20
551.625854
  0
VERTEX
  8
8
  10
1271.373779
  20
550.838135
  0
VERTEX
  8
8
  10
1274.560791
  20
550.133057
  0
VERTEX
  8
8
  10
1277.763794
  20
549.510132
  0
VERTEX
  8
8
  10
1280.981934
  20
548.968994
  0
VERTEX
  8
8
  10
1285.463867
  20
548.350464
  0
VERTEX
  8
8
  10
1289.962891
  20
547.867004
  0
VERTEX
  8
8
  10
1294.476685
  20
547.495911
  0
VERTEX
  8
8
  10
1299.025146
  20
547.224060
  0
VERTEX
  8
8
  10
1303.575684
  20
547.085754
  0
VERTEX
  8
8
  10
1308.126709
  20
547.122803
  0
VERTEX
  8
8
  10
1314.130127
  20
547.426697
  0
VERTEX
  8
8
  10
1318.132813
  20
547.657959
  0
VERTEX
  8
8
  10
1313.690674
  20
539.455688
  0
VERTEX
  8
8
  10
1302.521240
  20
517.785278
  0
VERTEX
  8
8
  10
1296.152832
  20
504.616699
  0
VERTEX
  8
8
  10
1290.017578
  20
491.338684
  0
VERTEX
  8
8
  10
1284.152100
  20
478.138611
  0
VERTEX
  8
8
  10
1281.346558
  20
471.487823
  0
VERTEX
  8
8
  10
1278.697998
  20
464.774353
  0
VERTEX
  8
8
  10
1276.209473
  20
457.863556
  0
VERTEX
  8
8
  10
1273.878662
  20
450.896484
  0
VERTEX
  8
8
  10
1269.430420
  20
436.883179
  0
VERTEX
  8
8
  10
1260.881836
  20
408.688782
  0
VERTEX
  8
8
  10
1256.578857
  20
394.764893
  0
VERTEX
  8
8
  10
1255.200439
  20
390.111969
  0
VERTEX
  8
8
  10
1253.899658
  20
385.439667
  0
VERTEX
  8
8
  10
1252.722656
  20
380.735352
  0
VERTEX
  8
8
  10
1251.695557
  20
375.962952
  0
VERTEX
  8
8
  10
1250.800293
  20
371.163330
  0
VERTEX
  8
8
  10
1249.994385
  20
366.345154
  0
VERTEX
  8
8
  10
1247.798340
  20
351.841553
  0
VERTEX
  8
8
  10
1245.679199
  20
337.290283
  0
VERTEX
  8
8
  10
1243.831055
  20
322.703186
  0
VERTEX
  8
8
  10
1242.291748
  20
308.180603
  0
VERTEX
  8
8
  10
1241.642090
  20
300.908112
  0
VERTEX
  8
8
  10
1241.078369
  20
293.628357
  0
VERTEX
  8
8
  10
1240.606323
  20
286.366302
  0
VERTEX
  8
8
  10
1240.233643
  20
279.098755
  0
VERTEX
  8
8
  10
1239.741699
  20
264.544373
  0
VERTEX
  8
8
  10
1226.941284
  20
-221.725708
  0
VERTEX
  8
8
  10
1039.460938
  20
-221.726318
  0
SEQEND
  0
POINT
  8
2
  10
1039.460938
  20
-221.726318
  0
POINT
  8
2
  10
1028.586914
  20
213.244690
  0
POINT
  8
2
  10
1027.543213
  20
244.028870
  0
POINT
  8
2
  10
1026.661865
  20
264.544495
  0
POINT
  8
2
  10
1022.844727
  20
325.872192
  0
POINT
  8
2
  10
1018.525818
  20
360.916077
  0
POINT
  8
2
  10
1013.296326
  20
395.836060
  0
POINT
  8
2
  10
1006.100342
  20
435.082397
  0
POINT
  8
2
  10
990.798828
  20
513.432983
  0
POINT
  8
2
  10
983.745544
  20
552.705505
  0
POINT
  8
2
  10
978.024109
  20
592.209167
  0
POINT
  8
2
  10
973.595459
  20
631.866577
  0
POINT
  8
2
  10
971.490967
  20
665.040283
  0
POINT
  8
2
  10
970.344727
  20
698.284668
  0
POINT
  8
2
  10
970.193359
  20
723.624878
  0
POINT
  8
2
  10
993.376953
  20
726.659058
  0
POINT
  8
2
  10
1021.832703
  20
729.858582
  0
POINT
  8
2
  10
1053.793213
  20
733.215759
  0
POINT
  8
2
  10
1087.626221
  20
736.409668
  0
POINT
  8
2
  10
1119.502441
  20
739.012695
  0
POINT
  8
2
  10
1153.453857
  20
741.142090
  0
POINT
  8
2
  10
1187.405273
  20
742.837402
  0
POINT
  8
2
  10
1193.710083
  20
705.475891
  0
POINT
  8
2
  10
1199.001953
  20
673.202393
  0
POINT
  8
2
  10
1318.132813
  20
547.657959
  0
POINT
  8
2
  10
1313.690674
  20
539.455688
  0
POINT
  8
2
  10
1302.521240
  20
517.785278
  0
POINT
  8
2
  10
1269.430420
  20
436.883179
  0
POINT
  8
2
  10
1260.881836
  20
408.688782
  0
POINT
  8
2
  10
1239.741699
  20
264.544373
  0
POINT
  8
2
  10
1226.941284
  20
-221.725708
  0
POINT
  8
3
  10
1026.234619
  20
276.830688
  0
POINT
  8
3
  10
1025.580322
  20
289.103394
  0
POINT
  8
3
  10
1025.058960
  20
298.310150
  0
POINT
  8
3
  10
1024.458374
  20
307.510986
  0
POINT
  8
3
  10
1023.699890
  20
316.695190
  0
POINT
  8
3
  10
979.519531
  20
724.878906
  0
POINT
  8
3
  10
1201.564209
  20
656.674194
  0
POINT
  8
3
  10
1204.387695
  20
640.196960
  0
POINT
  8
3
  10
1205.477539
  20
634.059570
  0
POINT
  8
3
  10
1206.617920
  20
627.933594
  0
POINT
  8
3
  10
1207.858154
  20
621.824463
  0
POINT
  8
3
  10
1208.663940
  20
618.195984
  0
POINT
  8
3
  10
1209.530518
  20
614.582520
  0
POINT
  8
3
  10
1210.467529
  20
610.987305
  0
POINT
  8
3
  10
1211.484375
  20
607.413757
  0
POINT
  8
3
  10
1212.590820
  20
603.865173
  0
POINT
  8
3
  10
1213.537720
  20
601.073730
  0
POINT
  8
3
  10
1214.553345
  20
598.307373
  0
POINT
  8
3
  10
1215.645752
  20
595.571045
  0
POINT
  8
3
  10
1216.822876
  20
592.869690
  0
POINT
  8
3
  10
1218.092529
  20
590.208191
  0
POINT
  8
3
  10
1219.209961
  20
588.055054
  0
POINT
  8
3
  10
1220.395508
  20
585.938477
  0
POINT
  8
3
  10
1221.650513
  20
583.863037
  0
POINT
  8
3
  10
1222.976440
  20
581.833313
  0
POINT
  8
3
  10
1224.374634
  20
579.854004
  0
POINT
  8
3
  10
1225.846436
  20
577.929504
  0
POINT
  8
3
  10
1227.514404
  20
575.922241
  0
POINT
  8
3
  10
1229.261963
  20
573.983887
  0
POINT
  8
3
  10
1231.083252
  20
572.112793
  0
POINT
  8
3
  10
1232.972412
  20
570.307007
  0
POINT
  8
3
  10
1234.923462
  20
568.564697
  0
POINT
  8
3
  10
1236.930420
  20
566.883972
  0
POINT
  8
3
  10
1238.990601
  20
565.262695
  0
POINT
  8
3
  10
1241.099365
  20
563.708252
  0
POINT
  8
3
  10
1243.256592
  20
562.226074
  0
POINT
  8
3
  10
1245.462402
  20
560.821777
  0
POINT
  8
3
  10
1247.716919
  20
559.500610
  0
POINT
  8
3
  10
1250.020020
  20
558.268311
  0
POINT
  8
3
  10
1252.435303
  20
557.098572
  0
POINT
  8
3
  10
1254.894287
  20
556.021973
  0
POINT
  8
3
  10
1257.391113
  20
555.030945
  0
POINT
  8
3
  10
1259.920166
  20
554.118042
  0
POINT
  8
3
  10
1262.475586
  20
553.275757
  0
POINT
  8
3
  10
1265.051758
  20
552.496460
  0
POINT
  8
3
  10
1268.203857
  20
551.625854
  0
POINT
  8
3
  10
1271.373779
  20
550.838135
  0
POINT
  8
3
  10
1274.560791
  20
550.133057
  0
POINT
  8
3
  10
1277.763794
  20
549.510132
  0
POINT
  8
3
  10
1280.981934
  20
548.968994
  0
POINT
  8
3
  10
1285.463867
  20
548.350464
  0
POINT
  8
3
  10
1289.962891
  20
547.867004
  0
POINT
  8
3
  10
1294.476685
  20
547.495911
  0
POINT
  8
3
  10
1299.025146
  20
547.224060
  0
POINT
  8
3
  10
1303.575684
  20
547.085754
  0
POINT
  8
3
  10
1308.126709
  20
547.122803
  0
POINT
  8
3
  10
1314.130127
  20
547.426697
  0
POINT
  8
3
  10
1296.152832
  20
504.616699
  0
POINT
  8
3
  10
1290.017578
  20
491.338684
  0
POINT
  8
3
  10
1284.152100
  20
478.138611
  0
POINT
  8
3
  10
1281.346558
  20
471.487823
  0
POINT
  8
3
  10
1278.697998
  20
464.774353
  0
POINT
  8
3
  10
1276.209473
  20
457.863556
  0
POINT
  8
3
  10
1273.878662
  20
450.896484
  0
POINT
  8
3
  10
1256.578857
  20
394.764893
  0
POINT
  8
3
  10
1255.200439
  20
390.111969
  0
POINT
  8
3
  10
1253.899658
  20
385.439667
  0
POINT
  8
3
  10
1252.722656
  20
380.735352
  0
POINT
  8
3
  10
1251.695557
  20
375.962952
  0
POINT
  8
3
  10
1250.800293
  20
371.163330
  0
POINT
  8
3
  10
1249.994385
  20
366.345154
  0
POINT
  8
3
  10
1247.798340
  20
351.841553
  0
POINT
  8
3
  10
1245.679199
  20
337.290283
  0
POINT
  8
3
  10
1243.831055
  20
322.703186
  0
POINT
  8
3
  10
1242.291748
  20
308.180603
  0
POINT
  8
3
  10
1241.642090
  20
300.908112
  0
POINT
  8
3
  10
1241.078369
  20
293.628357
  0
POINT
  8
3
  10
1240.606323
  20
286.366302
  0
POINT
  8
3
  10
1240.233643
  20
279.098755
  0
POLYLINE
  8
8
  66
1
  70
0
  250
0
  0
VERTEX
  8
8
  10
1026.660645
  20
264.544373
  0
VERTEX
  8
8
  10
1239.741699
  20
264.544861
  0
SEQEND
  0
POINT
  8
2
  10
1026.660645
  20
264.544373
  0
POLYLINE
  8
8
  66
1
  70
0
  250
0
  0
VERTEX
  8
8
  10
1133.324463
  20
-221.725708
  0
VERTEX
  8
8
  10
1133.324463
  20
739.944092
  0
SEQEND
  0
POINT
  8
2
  10
1133.324463
  20
-221.725708
  0
POLYLINE
  8
8
  66
1
  70
0
  250
0
  0
VERTEX
  8
8
  10
1208.663818
  20
608.055908
  0
VERTEX
  8
8
  10
1189.249756
  20
602.347900
  0
SEQEND
  0
POINT
  8
2
  10
1208.663818
  20
608.055908
  0
ENDBLK
  0
BLOCK
  8
0
  2
BLK_2_1_M
  70
64
  10
0
  20
0
  0
TEXT
  8
1
  10
691.498047
  20
254.432068
  50
0.000000
  51
0.000000
  71
0.000000
  1
PIECE NAME: BLK_2_1
  0
TEXT
  8
1
  10
691.498047
  20
249.432068
  50
0.000000
  51
0.000000
  71
0.000000
  1
SIZE: M
  0
TEXT
  8
1
  10
691.498047
  20
244.432068
  50
0.000000
  51
0.000000
  71
0.000000
  1
ANNOTATION: 
  0
TEXT
  8
1
  10
691.498047
  20
239.432068
  50
0.000000
  51
0.000000
  71
0.000000
  1
QUANTITY: 1
  0
POLYLINE
  8
1
  66
1
  70
1
  250
2
  0
VERTEX
  8
1
  10
619.915344
  20
-224.528137
  0
VERTEX
  8
1
  10
610.916382
  20
261.741882
  0
VERTEX
  8
1
  10
610.486755
  20
270.906860
  0
VERTEX
  8
1
  10
610.034058
  20
280.067139
  0
VERTEX
  8
1
  10
609.534668
  20
289.224670
  0
VERTEX
  8
1
  10
608.964722
  20
298.381348
  0
VERTEX
  8
1
  10
608.535339
  20
304.483398
  0
VERTEX
  8
1
  10
608.064941
  20
310.580566
  0
VERTEX
  8
1
  10
607.553711
  20
316.673706
  0
VERTEX
  8
1
  10
607.001892
  20
322.763306
  0
VERTEX
  8
1
  10
606.409668
  20
328.849854
  0
VERTEX
  8
1
  10
605.777283
  20
334.934326
  0
VERTEX
  8
1
  10
604.967346
  20
342.229919
  0
VERTEX
  8
1
  10
604.108521
  20
349.517212
  0
VERTEX
  8
1
  10
603.208679
  20
356.798828
  0
VERTEX
  8
1
  10
602.275452
  20
364.077454
  0
VERTEX
  8
1
  10
601.316772
  20
371.355774
  0
VERTEX
  8
1
  10
600.565308
  20
376.961060
  0
VERTEX
  8
1
  10
599.803223
  20
382.564087
  0
VERTEX
  8
1
  10
599.029907
  20
388.164917
  0
VERTEX
  8
1
  10
598.244812
  20
393.763489
  0
VERTEX
  8
1
  10
597.447449
  20
399.359863
  0
VERTEX
  8
1
  10
596.637207
  20
404.953918
  0
VERTEX
  8
1
  10
595.813660
  20
410.545654
  0
VERTEX
  8
1
  10
594.976135
  20
416.135132
  0
VERTEX
  8
1
  10
594.124268
  20
421.722168
  0
VERTEX
  8
1
  10
593.257385
  20
427.306885
  0
VERTEX
  8
1
  10
592.375000
  20
432.889160
  0
VERTEX
  8
1
  10
591.476624
  20
438.469055
  0
VERTEX
  8
1
  10
590.561646
  20
444.046570
  0
VERTEX
  8
1
  10
589.629578
  20
449.621521
  0
VERTEX
  8
1
  10
588.679810
  20
455.193909
  0
VERTEX
  8
1
  10
587.711975
  20
460.763855
  0
VERTEX
  8
1
  10
586.725342
  20
466.331360
  0
VERTEX
  8
1
  10
585.502075
  20
473.087280
  0
VERTEX
  8
1
  10
584.252686
  20
479.837219
  0
VERTEX
  8
1
  10
582.979248
  20
486.581543
  0
VERTEX
  8
1
  10
581.683716
  20
493.321045
  0
VERTEX
  8
1
  10
580.368042
  20
500.056274
  0
VERTEX
  8
1
  10
579.034363
  20
506.787659
  0
VERTEX
  8
1
  10
577.684570
  20
513.515869
  0
VERTEX
  8
1
  10
576.320618
  20
520.241577
  0
VERTEX
  8
1
  10
574.944580
  20
526.965210
  0
VERTEX
  8
1
  10
573.558472
  20
533.687317
  0
VERTEX
  8
1
  10
572.164185
  20
540.408630
  0
VERTEX
  8
1
  10
570.763733
  20
547.129639
  0
VERTEX
  8
1
  10
569.359192
  20
553.850952
  0
VERTEX
  8
1
  10
567.952454
  20
560.573059
  0
VERTEX
  8
1
  10
569.785889
  20
562.158447
  0
VERTEX
  8
1
  10
571.606750
  20
563.752441
  0
VERTEX
  8
1
  10
573.402710
  20
565.364014
  0
VERTEX
  8
1
  10
575.161316
  20
567.002441
  0
VERTEX
  8
1
  10
576.870300
  20
568.676880
  0
VERTEX
  8
1
  10
578.517273
  20
570.396606
  0
VERTEX
  8
1
  10
580.089966
  20
572.170776
  0
VERTEX
  8
1
  10
581.575928
  20
574.008606
  0
VERTEX
  8
1
  10
582.962891
  20
575.919128
  0
VERTEX
  8
1
  10
584.018494
  20
577.543030
  0
VERTEX
  8
1
  10
585.003723
  20
579.216064
  0
VERTEX
  8
1
  10
585.923218
  20
580.933167
  0
VERTEX
  8
1
  10
586.781677
  20
582.689331
  0
VERTEX
  8
1
  10
587.583801
  20
584.479675
  0
VERTEX
  8
1
  10
588.334229
  20
586.299072
  0
VERTEX
  8
1
  10
589.037720
  20
588.142578
  0
VERTEX
  8
1
  10
589.698853
  20
590.005249
  0
VERTEX
  8
1
  10
590.322449
  20
591.882080
  0
VERTEX
  8
1
  10
590.913086
  20
593.768005
  0
VERTEX
  8
1
  10
591.475464
  20
595.658081
  0
VERTEX
  8
1
  10
592.778076
  20
600.435974
  0
VERTEX
  8
1
  10
593.865601
  20
605.242859
  0
VERTEX
  8
1
  10
594.708618
  20
610.107056
  0
VERTEX
  8
1
  10
595.412231
  20
615.004578
  0
VERTEX
  8
1
  10
600.006958
  20
730.269775
  0
VERTEX
  8
1
  10
606.189819
  20
730.171875
  0
VERTEX
  8
1
  10
612.370605
  20
730.082947
  0
VERTEX
  8
1
  10
618.549988
  20
730.012085
  0
VERTEX
  8
1
  10
624.728394
  20
729.968384
  0
VERTEX
  8
1
  10
630.906555
  20
729.960632
  0
VERTEX
  8
1
  10
637.084839
  20
729.998230
  0
VERTEX
  8
1
  10
643.263977
  20
730.089966
  0
VERTEX
  8
1
  10
649.442078
  20
730.241882
  0
VERTEX
  8
1
  10
655.617249
  20
730.448120
  0
VERTEX
  8
1
  10
661.790466
  20
730.699341
  0
VERTEX
  8
1
  10
667.962524
  20
730.986816
  0
VERTEX
  8
1
  10
674.134521
  20
731.301270
  0
VERTEX
  8
1
  10
680.307190
  20
731.633972
  0
VERTEX
  8
1
  10
686.481567
  20
731.975586
  0
VERTEX
  8
1
  10
718.731262
  20
733.392273
  0
VERTEX
  8
1
  10
718.900269
  20
730.081726
  0
VERTEX
  8
1
  10
719.100647
  20
726.774963
  0
VERTEX
  8
1
  10
719.364990
  20
723.474121
  0
VERTEX
  8
1
  10
719.725586
  20
720.181885
  0
VERTEX
  8
1
  10
720.214966
  20
716.900452
  0
VERTEX
  8
1
  10
720.598694
  20
714.862488
  0
VERTEX
  8
1
  10
721.049011
  20
712.836060
  0
VERTEX
  8
1
  10
721.570618
  20
710.826599
  0
VERTEX
  8
1
  10
722.168335
  20
708.839539
  0
VERTEX
  8
1
  10
722.846863
  20
706.880188
  0
VERTEX
  8
1
  10
723.610901
  20
704.954041
  0
VERTEX
  8
1
  10
724.465271
  20
703.066406
  0
VERTEX
  8
1
  10
725.414673
  20
701.222778
  0
VERTEX
  8
1
  10
726.223267
  20
699.818848
  0
VERTEX
  8
1
  10
727.089722
  20
698.447388
  0
VERTEX
  8
1
  10
728.011841
  20
697.110291
  0
VERTEX
  8
1
  10
728.987305
  20
695.809570
  0
VERTEX
  8
1
  10
730.013733
  20
694.546997
  0
VERTEX
  8
1
  10
731.088867
  20
693.324585
  0
VERTEX
  8
1
  10
732.210449
  20
692.144226
  0
VERTEX
  8
1
  10
733.376099
  20
691.007751
  0
VERTEX
  8
1
  10
734.583557
  20
689.917114
  0
VERTEX
  8
1
  10
735.830505
  20
688.874207
  0
VERTEX
  8
1
  10
737.114624
  20
687.880981
  0
VERTEX
  8
1
  10
738.433655
  20
686.939270
  0
VERTEX
  8
1
  10
740.062744
  20
685.876709
  0
VERTEX
  8
1
  10
741.734497
  20
684.888367
  0
VERTEX
  8
1
  10
743.445007
  20
683.970154
  0
VERTEX
  8
1
  10
745.190430
  20
683.118225
  0
VERTEX
  8
1
  10
746.967041
  20
682.328674
  0
VERTEX
  8
1
  10
748.770874
  20
681.597717
  0
VERTEX
  8
1
  10
750.598145
  20
680.921143
  0
VERTEX
  8
1
  10
752.445068
  20
680.295349
  0
VERTEX
  8
1
  10
754.307800
  20
679.716309
  0
VERTEX
  8
1
  10
756.182434
  20
679.180054
  0
VERTEX
  8
1
  10
758.503174
  20
678.573730
  0
VERTEX
  8
1
  10
760.834412
  20
678.024658
  0
VERTEX
  8
1
  10
763.175171
  20
677.530029
  0
VERTEX
  8
1
  10
765.524658
  20
677.087219
  0
VERTEX
  8
1
  10
767.881897
  20
676.693481
  0
VERTEX
  8
1
  10
770.245972
  20
676.346191
  0
VERTEX
  8
1
  10
772.616028
  20
676.042603
  0
VERTEX
  8
1
  10
774.991089
  20
675.780090
  0
VERTEX
  8
1
  10
777.370300
  20
675.555786
  0
VERTEX
  8
1
  10
779.752808
  20
675.367188
  0
VERTEX
  8
1
  10
782.137573
  20
675.211426
  0
VERTEX
  8
1
  10
784.523804
  20
675.085938
  0
VERTEX
  8
1
  10
789.302734
  20
674.916260
  0
VERTEX
  8
1
  10
794.081055
  20
674.840454
  0
VERTEX
  8
1
  10
798.859131
  20
674.839355
  0
VERTEX
  8
1
  10
803.637451
  20
674.894165
  0
VERTEX
  8
1
  10
808.416443
  20
674.985779
  0
VERTEX
  8
1
  10
813.196655
  20
675.095154
  0
VERTEX
  8
1
  10
815.043579
  20
631.901367
  0
VERTEX
  8
1
  10
814.370605
  20
625.780457
  0
VERTEX
  8
1
  10
813.692139
  20
619.661865
  0
VERTEX
  8
1
  10
813.002441
  20
613.546143
  0
VERTEX
  8
1
  10
812.295776
  20
607.433533
  0
VERTEX
  8
1
  10
811.566284
  20
601.324463
  0
VERTEX
  8
1
  10
810.808350
  20
595.219360
  0
VERTEX
  8
1
  10
810.016113
  20
589.118591
  0
VERTEX
  8
1
  10
809.183838
  20
583.022583
  0
VERTEX
  8
1
  10
808.305847
  20
576.931641
  0
VERTEX
  8
1
  10
807.105713
  20
569.110352
  0
VERTEX
  8
1
  10
805.838501
  20
561.301208
  0
VERTEX
  8
1
  10
804.521606
  20
553.500732
  0
VERTEX
  8
1
  10
803.172363
  20
545.705261
  0
VERTEX
  8
1
  10
801.808105
  20
537.911438
  0
VERTEX
  8
1
  10
800.446045
  20
530.115662
  0
VERTEX
  8
1
  10
799.103638
  20
522.314392
  0
VERTEX
  8
1
  10
797.596375
  20
513.305237
  0
VERTEX
  8
1
  10
796.131653
  20
504.292053
  0
VERTEX
  8
1
  10
794.701904
  20
495.275208
  0
VERTEX
  8
1
  10
793.299438
  20
486.255005
  0
VERTEX
  8
1
  10
791.916748
  20
477.231689
  0
VERTEX
  8
1
  10
790.546143
  20
468.205505
  0
VERTEX
  8
1
  10
789.180054
  20
459.176819
  0
VERTEX
  8
1
  10
787.810852
  20
450.146057
  0
VERTEX
  8
1
  10
786.709778
  20
442.922424
  0
VERTEX
  8
1
  10
785.606567
  20
435.700806
  0
VERTEX
  8
1
  10
784.505249
  20
428.480225
  0
VERTEX
  8
1
  10
783.410034
  20
421.259583
  0
VERTEX
  8
1
  10
782.325134
  20
414.037964
  0
VERTEX
  8
1
  10
781.254578
  20
406.814392
  0
VERTEX
  8
1
  10
780.202637
  20
399.587646
  0
VERTEX
  8
1
  10
779.173340
  20
392.356873
  0
VERTEX
  8
1
  10
778.170837
  20
385.121033
  0
VERTEX
  8
1
  10
777.199341
  20
377.879089
  0
VERTEX
  8
1
  10
776.448486
  20
372.092346
  0
VERTEX
  8
1
  10
775.720520
  20
366.304016
  0
VERTEX
  8
1
  10
775.015808
  20
360.513611
  0
VERTEX
  8
1
  10
774.334473
  20
354.721130
  0
VERTEX
  8
1
  10
773.676697
  20
348.926147
  0
VERTEX
  8
1
  10
773.042786
  20
343.128601
  0
VERTEX
  8
1
  10
772.432800
  20
337.328247
  0
VERTEX
  8
1
  10
771.847107
  20
331.524780
  0
VERTEX
  8
1
  10
771.285767
  20
325.718018
  0
VERTEX
  8
1
  10
770.749084
  20
319.907654
  0
VERTEX
  8
1
  10
770.024536
  20
311.603638
  0
VERTEX
  8
1
  10
769.344116
  20
303.298462
  0
VERTEX
  8
1
  10
768.700317
  20
294.991760
  0
VERTEX
  8
1
  10
768.085815
  20
286.683167
  0
VERTEX
  8
1
  10
767.493164
  20
278.372253
  0
VERTEX
  8
1
  10
766.914917
  20
270.058533
  0
VERTEX
  8
1
  10
766.343628
  20
261.741882
  0
VERTEX
  8
1
  10
759.344055
  20
-224.528137
  0
SEQEND
  0
POINT
  8
2
  10
619.915344
  20
-224.528137
  0
POINT
  8
2
  10
610.916382
  20
261.741882
  0
POINT
  8
2
  10
567.952454
  20
560.573059
  0
POINT
  8
2
  10
595.412231
  20
615.004578
  0
POINT
  8
2
  10
600.006958
  20
730.269775
  0
POINT
  8
2
  10
686.481567
  20
731.975586
  0
POINT
  8
2
  10
718.731262
  20
733.392273
  0
POINT
  8
2
  10
813.196655
  20
675.095154
  0
POINT
  8
2
  10
815.043579
  20
631.901367
  0
POINT
  8
2
  10
766.343628
  20
261.741882
  0
POINT
  8
2
  10
759.344055
  20
-224.528137
  0
POINT
  8
3
  10
610.486755
  20
270.906860
  0
POINT
  8
3
  10
610.034058
  20
280.067139
  0
POINT
  8
3
  10
609.534668
  20
289.224670
  0
POINT
  8
3
  10
608.964722
  20
298.381348
  0
POINT
  8
3
  10
608.535339
  20
304.483398
  0
POINT
  8
3
  10
608.064941
  20
310.580566
  0
POINT
  8
3
  10
607.553711
  20
316.673706
  0
POINT
  8
3
  10
607.001892
  20
322.763306
  0
POINT
  8
3
  10
606.409668
  20
328.849854
  0
POINT
  8
3
  10
605.777283
  20
334.934326
  0
POINT
  8
3
  10
604.967346
  20
342.229919
  0
POINT
  8
3
  10
604.108521
  20
349.517212
  0
POINT
  8
3
  10
603.208679
  20
356.798828
  0
POINT
  8
3
  10
602.275452
  20
364.077454
  0
POINT
  8
3
  10
601.316772
  20
371.355774
  0
POINT
  8
3
  10
600.565308
  20
376.961060
  0
POINT
  8
3
  10
599.803223
  20
382.564087
  0
POINT
  8
3
  10
599.029907
  20
388.164917
  0
POINT
  8
3
  10
598.244812
  20
393.763489
  0
POINT
  8
3
  10
597.447449
  20
399.359863
  0
POINT
  8
3
  10
596.637207
  20
404.953918
  0
POINT
  8
3
  10
595.813660
  20
410.545654
  0
POINT
  8
3
  10
594.976135
  20
416.135132
  0
POINT
  8
3
  10
594.124268
  20
421.722168
  0
POINT
  8
3
  10
593.257385
  20
427.306885
  0
POINT
  8
3
  10
592.375000
  20
432.889160
  0
POINT
  8
3
  10
591.476624
  20
438.469055
  0
POINT
  8
3
  10
590.561646
  20
444.046570
  0
POINT
  8
3
  10
589.629578
  20
449.621521
  0
POINT
  8
3
  10
588.679810
  20
455.193909
  0
POINT
  8
3
  10
587.711975
  20
460.763855
  0
POINT
  8
3
  10
586.725342
  20
466.331360
  0
POINT
  8
3
  10
585.502075
  20
473.087280
  0
POINT
  8
3
  10
584.252686
  20
479.837219
  0
POINT
  8
3
  10
582.979248
  20
486.581543
  0
POINT
  8
3
  10
581.683716
  20
493.321045
  0
POINT
  8
3
  10
580.368042
  20
500.056274
  0
POINT
  8
3
  10
579.034363
  20
506.787659
  0
POINT
  8
3
  10
577.684570
  20
513.515869
  0
POINT
  8
3
  10
576.320618
  20
520.241577
  0
POINT
  8
3
  10
574.944580
  20
526.965210
  0
POINT
  8
3
  10
573.558472
  20
533.687317
  0
POINT
  8
3
  10
572.164185
  20
540.408630
  0
POINT
  8
3
  10
570.763733
  20
547.129639
  0
POINT
  8
3
  10
569.359192
  20
553.850952
  0
POINT
  8
3
  10
569.785889
  20
562.158447
  0
POINT
  8
3
  10
571.606750
  20
563.752441
  0
POINT
  8
3
  10
573.402710
  20
565.364014
  0
POINT
  8
3
  10
575.161316
  20
567.002441
  0
POINT
  8
3
  10
576.870300
  20
568.676880
  0
POINT
  8
3
  10
578.517273
  20
570.396606
  0
POINT
  8
3
  10
580.089966
  20
572.170776
  0
POINT
  8
3
  10
581.575928
  20
574.008606
  0
POINT
  8
3
  10
582.962891
  20
575.919128
  0
POINT
  8
3
  10
584.018494
  20
577.543030
  0
POINT
  8
3
  10
585.003723
  20
579.216064
  0
POINT
  8
3
  10
585.923218
  20
580.933167
  0
POINT
  8
3
  10
586.781677
  20
582.689331
  0
POINT
  8
3
  10
587.583801
  20
584.479675
  0
POINT
  8
3
  10
588.334229
  20
586.299072
  0
POINT
  8
3
  10
589.037720
  20
588.142578
  0
POINT
  8
3
  10
589.698853
  20
590.005249
  0
POINT
  8
3
  10
590.322449
  20
591.882080
  0
POINT
  8
3
  10
590.913086
  20
593.768005
  0
POINT
  8
3
  10
591.475464
  20
595.658081
  0
POINT
  8
3
  10
592.778076
  20
600.435974
  0
POINT
  8
3
  10
593.865601
  20
605.242859
  0
POINT
  8
3
  10
594.708618
  20
610.107056
  0
POINT
  8
3
  10
606.189819
  20
730.171875
  0
POINT
  8
3
  10
612.370605
  20
730.082947
  0
POINT
  8
3
  10
618.549988
  20
730.012085
  0
POINT
  8
3
  10
624.728394
  20
729.968384
  0
POINT
  8
3
  10
630.906555
  20
729.960632
  0
POINT
  8
3
  10
637.084839
  20
729.998230
  0
POINT
  8
3
  10
643.263977
  20
730.089966
  0
POINT
  8
3
  10
649.442078
  20
730.241882
  0
POINT
  8
3
  10
655.617249
  20
730.448120
  0
POINT
  8
3
  10
661.790466
  20
730.699341
  0
POINT
  8
3
  10
667.962524
  20
730.986816
  0
POINT
  8
3
  10
674.134521
  20
731.301270
  0
POINT
  8
3
  10
680.307190
  20
731.633972
  0
POINT
  8
3
  10
718.900269
  20
730.081726
  0
POINT
  8
3
  10
719.100647
  20
726.774963
  0
POINT
  8
3
  10
719.364990
  20
723.474121
  0
POINT
  8
3
  10
719.725586
  20
720.181885
  0
POINT
  8
3
  10
720.214966
  20
716.900452
  0
POINT
  8
3
  10
720.598694
  20
714.862488
  0
POINT
  8
3
  10
721.049011
  20
712.836060
  0
POINT
  8
3
  10
721.570618
  20
710.826599
  0
POINT
  8
3
  10
722.168335
  20
708.839539
  0
POINT
  8
3
  10
722.846863
  20
706.880188
  0
POINT
  8
3
  10
723.610901
  20
704.954041
  0
POINT
  8
3
  10
724.465271
  20
703.066406
  0
POINT
  8
3
  10
725.414673
  20
701.222778
  0
POINT
  8
3
  10
726.223267
  20
699.818848
  0
POINT
  8
3
  10
727.089722
  20
698.447388
  0
POINT
  8
3
  10
728.011841
  20
697.110291
  0
POINT
  8
3
  10
728.987305
  20
695.809570
  0
POINT
  8
3
  10
730.013733
  20
694.546997
  0
POINT
  8
3
  10
731.088867
  20
693.324585
  0
POINT
  8
3
  10
732.210449
  20
692.144226
  0
POINT
  8
3
  10
733.376099
  20
691.007751
  0
POINT
  8
3
  10
734.583557
  20
689.917114
  0
POINT
  8
3
  10
735.830505
  20
688.874207
  0
POINT
  8
3
  10
737.114624
  20
687.880981
  0
POINT
  8
3
  10
738.433655
  20
686.939270
  0
POINT
  8
3
  10
740.062744
  20
685.876709
  0
POINT
  8
3
  10
741.734497
  20
684.888367
  0
POINT
  8
3
  10
743.445007
  20
683.970154
  0
POINT
  8
3
  10
745.190430
  20
683.118225
  0
POINT
  8
3
  10
746.967041
  20
682.328674
  0
POINT
  8
3
  10
748.770874
  20
681.597717
  0
POINT
  8
3
  10
750.598145
  20
680.921143
  0
POINT
  8
3
  10
752.445068
  20
680.295349
  0
POINT
  8
3
  10
754.307800
  20
679.716309
  0
POINT
  8
3
  10
756.182434
  20
679.180054
  0
POINT
  8
3
  10
758.503174
  20
678.573730
  0
POINT
  8
3
  10
760.834412
  20
678.024658
  0
POINT
  8
3
  10
763.175171
  20
677.530029
  0
POINT
  8
3
  10
765.524658
  20
677.087219
  0
POINT
  8
3
  10
767.881897
  20
676.693481
  0
POINT
  8
3
  10
770.245972
  20
676.346191
  0
POINT
  8
3
  10
772.616028
  20
676.042603
  0
POINT
  8
3
  10
774.991089
  20
675.780090
  0
POINT
  8
3
  10
777.370300
  20
675.555786
  0
POINT
  8
3
  10
779.752808
  20
675.367188
  0
POINT
  8
3
  10
782.137573
  20
675.211426
  0
POINT
  8
3
  10
784.523804
  20
675.085938
  0
POINT
  8
3
  10
789.302734
  20
674.916260
  0
POINT
  8
3
  10
794.081055
  20
674.840454
  0
POINT
  8
3
  10
798.859131
  20
674.839355
  0
POINT
  8
3
  10
803.637451
  20
674.894165
  0
POINT
  8
3
  10
808.416443
  20
674.985779
  0
POINT
  8
3
  10
814.370605
  20
625.780457
  0
POINT
  8
3
  10
813.692139
  20
619.661865
  0
POINT
  8
3
  10
813.002441
  20
613.546143
  0
POINT
  8
3
  10
812.295776
  20
607.433533
  0
POINT
  8
3
  10
811.566284
  20
601.324463
  0
POINT
  8
3
  10
810.808350
  20
595.219360
  0
POINT
  8
3
  10
810.016113
  20
589.118591
  0
POINT
  8
3
  10
809.183838
  20
583.022583
  0
POINT
  8
3
  10
808.305847
  20
576.931641
  0
POINT
  8
3
  10
807.105713
  20
569.110352
  0
POINT
  8
3
  10
805.838501
  20
561.301208
  0
POINT
  8
3
  10
804.521606
  20
553.500732
  0
POINT
  8
3
  10
803.172363
  20
545.705261
  0
POINT
  8
3
  10
801.808105
  20
537.911438
  0
POINT
  8
3
  10
800.446045
  20
530.115662
  0
POINT
  8
3
  10
799.103638
  20
522.314392
  0
POINT
  8
3
  10
797.596375
  20
513.305237
  0
POINT
  8
3
  10
796.131653
  20
504.292053
  0
POINT
  8
3
  10
794.701904
  20
495.275208
  0
POINT
  8
3
  10
793.299438
  20
486.255005
  0
POINT
  8
3
  10
791.916748
  20
477.231689
  0
POINT
  8
3
  10
790.546143
  20
468.205505
  0
POINT
  8
3
  10
789.180054
  20
459.176819
  0
POINT
  8
3
  10
787.810852
  20
450.146057
  0
POINT
  8
3
  10
786.709778
  20
442.922424
  0
POINT
  8
3
  10
785.606567
  20
435.700806
  0
POINT
  8
3
  10
784.505249
  20
428.480225
  0
POINT
  8
3
  10
783.410034
  20
421.259583
  0
POINT
  8
3
  10
782.325134
  20
414.037964
  0
POINT
  8
3
  10
781.254578
  20
406.814392
  0
POINT
  8
3
  10
780.202637
  20
399.587646
  0
POINT
  8
3
  10
779.173340
  20
392.356873
  0
POINT
  8
3
  10
778.170837
  20
385.121033
  0
POINT
  8
3
  10
777.199341
  20
377.879089
  0
POINT
  8
3
  10
776.448486
  20
372.092346
  0
POINT
  8
3
  10
775.720520
  20
366.304016
  0
POINT
  8
3
  10
775.015808
  20
360.513611
  0
POINT
  8
3
  10
774.334473
  20
354.721130
  0
POINT
  8
3
  10
773.676697
  20
348.926147
  0
POINT
  8
3
  10
773.042786
  20
343.128601
  0
POINT
  8
3
  10
772.432800
  20
337.328247
  0
POINT
  8
3
  10
771.847107
  20
331.524780
  0
POINT
  8
3
  10
771.285767
  20
325.718018
  0
POINT
  8
3
  10
770.749084
  20
319.907654
  0
POINT
  8
3
  10
770.024536
  20
311.603638
  0
POINT
  8
3
  10
769.344116
  20
303.298462
  0
POINT
  8
3
  10
768.700317
  20
294.991760
  0
POINT
  8
3
  10
768.085815
  20
286.683167
  0
POINT
  8
3
  10
767.493164
  20
278.372253
  0
POINT
  8
3
  10
766.914917
  20
270.058533
  0
LINE
  8
7
  10
691.498047
  20
164.432068
  11
691.498047
  21
344.432068
  0
POLYLINE
  8
8
  66
1
  70
1
  250
0
  0
VERTEX
  8
8
  10
587.952454
  20
585.671143
  0
VERTEX
  8
8
  10
589.779419
  20
590.642517
  0
VERTEX
  8
8
  10
591.475464
  20
595.658569
  0
VERTEX
  8
8
  10
593.050171
  20
601.364380
  0
VERTEX
  8
8
  10
594.213440
  20
607.192078
  0
VERTEX
  8
8
  10
587.952454
  20
585.671143
  0
SEQEND
  0
POINT
  8
2
  10
587.952454
  20
585.671143
  0
POINT
  8
2
  10
594.213440
  20
607.192078
  0
POINT
  8
3
  10
589.779419
  20
590.642517
  0
POINT
  8
3
  10
591.475464
  20
595.658569
  0
POINT
  8
3
  10
593.050171
  20
601.364380
  0
POLYLINE
  8
8
  66
1
  70
0
  250
0
  0
VERTEX
  8
8
  10
766.343628
  20
261.741333
  0
VERTEX
  8
8
  10
610.916382
  20
261.741333
  0
SEQEND
  0
POINT
  8
2
  10
766.343628
  20
261.741333
  0
POLYLINE
  8
8
  66
1
  70
0
  250
0
  0
VERTEX
  8
8
  10
813.484741
  20
616.028564
  0
VERTEX
  8
8
  10
595.370728
  20
614.629150
  0
SEQEND
  0
POINT
  8
2
  10
813.484741
  20
616.028564
  0
POLYLINE
  8
8
  66
1
  70
0
  250
0
  0
VERTEX
  8
8
  10
625.496460
  20
729.515381
  0
VERTEX
  8
8
  10
624.358765
  20
642.578064
  0
SEQEND
  0
POINT
  8
2
  10
625.496460
  20
729.515381
  0
POLYLINE
  8
8
  66
1
  70
0
  250
0
  0
VERTEX
  8
8
  10
689.628540
  20
730.821472
  0
VERTEX
  8
8
  10
689.629761
  20
-224.528137
  0
SEQEND
  0
POINT
  8
2
  10
689.628540
  20
730.821472
  0
POLYLINE
  8
8
  66
1
  70
0
  250
0
  0
VERTEX
  8
8
  10
815.043579
  20
631.900879
  0
VERTEX
  8
8
  10
811.062866
  20
629.473083
  0
VERTEX
  8
8
  10
808.097778
  20
626.351746
  0
VERTEX
  8
8
  10
805.447693
  20
622.920959
  0
VERTEX
  8
8
  10
802.713257
  20
619.010376
  0
VERTEX
  8
8
  10
800.395142
  20
614.863647
  0
VERTEX
  8
8
  10
799.010193
  20
611.736328
  0
VERTEX
  8
8
  10
797.791382
  20
608.535278
  0
VERTEX
  8
8
  10
796.683472
  20
605.290161
  0
VERTEX
  8
8
  10
795.766296
  20
601.992859
  0
VERTEX
  8
8
  10
794.827515
  20
596.656982
  0
VERTEX
  8
8
  10
794.112183
  20
591.259460
  0
VERTEX
  8
8
  10
792.585083
  20
584.089355
  0
SEQEND
  0
POINT
  8
2
  10
815.043579
  20
631.900879
  0
POINT
  8
3
  10
811.062866
  20
629.473083
  0
POINT
  8
3
  10
808.097778
  20
626.351746
  0
POINT
  8
3
  10
805.447693
  20
622.920959
  0
POINT
  8
3
  10
802.713257
  20
619.010376
  0
POINT
  8
3
  10
800.395142
  20
614.863647
  0
POINT
  8
3
  10
799.010193
  20
611.736328
  0
POINT
  8
3
  10
797.791382
  20
608.535278
  0
POINT
  8
3
  10
796.683472
  20
605.290161
  0
POINT
  8
3
  10
795.766296
  20
601.992859
  0
POINT
  8
3
  10
794.827515
  20
596.656982
  0
POINT
  8
3
  10
794.112183
  20
591.259460
  0
POLYLINE
  8
8
  66
1
  70
0
  250
0
  0
VERTEX
  8
8
  10
595.412231
  20
615.004089
  0
VERTEX
  8
8
  10
595.839478
  20
618.960083
  0
VERTEX
  8
8
  10
596.242249
  20
624.914185
  0
VERTEX
  8
8
  10
596.519775
  20
632.983276
  0
VERTEX
  8
8
  10
596.660950
  20
641.056458
  0
VERTEX
  8
8
  10
600.006958
  20
730.269287
  0
SEQEND
  0
POINT
  8
2
  10
595.412231
  20
615.004089
  0
POINT
  8
2
  10
596.660950
  20
641.056458
  0
POINT
  8
3
  10
595.839478
  20
618.960083
  0
POINT
  8
3
  10
596.242249
  20
624.914185
  0
POINT
  8
3
  10
596.519775
  20
632.983276
  0
POLYLINE
  8
8
  66
1
  70
0
  250
0
  0
VERTEX
  8
8
  10
792.585083
  20
584.089844
  0
VERTEX
  8
8
  10
791.065247
  20
580.406738
  0
VERTEX
  8
8
  10
789.019348
  20
577.101379
  0
VERTEX
  8
8
  10
786.070190
  20
573.579773
  0
VERTEX
  8
8
  10
782.643677
  20
570.522339
  0
VERTEX
  8
8
  10
778.322388
  20
567.686890
  0
VERTEX
  8
8
  10
773.676392
  20
565.376892
  0
VERTEX
  8
8
  10
768.863159
  20
563.478760
  0
VERTEX
  8
8
  10
763.875366
  20
562.235046
  0
VERTEX
  8
8
  10
761.106506
  20
561.993164
  0
VERTEX
  8
8
  10
758.318726
  20
561.967773
  0
VERTEX
  8
8
  10
752.696167
  20
562.094788
  0
VERTEX
  8
8
  10
745.586975
  20
562.063965
  0
VERTEX
  8
8
  10
738.472534
  20
561.847534
  0
SEQEND
  0
POINT
  8
2
  10
792.585083
  20
584.089844
  0
POINT
  8
3
  10
791.065247
  20
580.406738
  0
POINT
  8
3
  10
789.019348
  20
577.101379
  0
POINT
  8
3
  10
786.070190
  20
573.579773
  0
POINT
  8
3
  10
782.643677
  20
570.522339
  0
POINT
  8
3
  10
778.322388
  20
567.686890
  0
POINT
  8
3
  10
773.676392
  20
565.376892
  0
POINT
  8
3
  10
768.863159
  20
563.478760
  0
POINT
  8
3
  10
763.875366
  20
562.235046
  0
POINT
  8
3
  10
761.106506
  20
561.993164
  0
POINT
  8
3
  10
758.318726
  20
561.967773
  0
POINT
  8
3
  10
752.696167
  20
562.094788
  0
POINT
  8
3
  10
745.586975
  20
562.063965
  0
POLYLINE
  8
8
  66
1
  70
0
  250
0
  0
VERTEX
  8
8
  10
685.050903
  20
613.589844
  0
VERTEX
  8
8
  10
685.774780
  20
650.722839
  0
VERTEX
  8
8
  10
686.480347
  20
731.992249
  0
SEQEND
  0
POINT
  8
2
  10
685.050903
  20
613.589844
  0
POINT
  8
2
  10
685.774780
  20
650.722839
  0
POLYLINE
  8
8
  66
1
  70
0
  250
0
  0
VERTEX
  8
8
  10
624.361206
  20
642.290039
  0
VERTEX
  8
8
  10
624.195190
  20
638.876038
  0
VERTEX
  8
8
  10
623.743591
  20
635.513855
  0
VERTEX
  8
8
  10
623.096558
  20
632.390686
  0
VERTEX
  8
8
  10
622.073608
  20
629.399963
  0
VERTEX
  8
8
  10
620.552612
  20
626.691467
  0
VERTEX
  8
8
  10
618.631287
  20
624.238281
  0
VERTEX
  8
8
  10
616.352173
  20
622.027893
  0
VERTEX
  8
8
  10
613.792358
  20
620.141541
  0
VERTEX
  8
8
  10
610.830994
  20
618.516968
  0
VERTEX
  8
8
  10
607.708374
  20
617.194153
  0
VERTEX
  8
8
  10
604.604980
  20
616.172058
  0
VERTEX
  8
8
  10
601.443787
  20
615.334656
  0
VERTEX
  8
8
  10
597.776794
  20
614.533752
  0
VERTEX
  8
8
  10
595.313354
  20
614.092773
  0
SEQEND
  0
POINT
  8
2
  10
624.361206
  20
642.290039
  0
POINT
  8
3
  10
624.195190
  20
638.876038
  0
POINT
  8
3
  10
623.743591
  20
635.513855
  0
POINT
  8
3
  10
623.096558
  20
632.390686
  0
POINT
  8
3
  10
622.073608
  20
629.399963
  0
POINT
  8
3
  10
620.552612
  20
626.691467
  0
POINT
  8
3
  10
618.631287
  20
624.238281
  0
POINT
  8
3
  10
616.352173
  20
622.027893
  0
POINT
  8
3
  10
613.792358
  20
620.141541
  0
POINT
  8
3
  10
610.830994
  20
618.516968
  0
POINT
  8
3
  10
607.708374
  20
617.194153
  0
POINT
  8
3
  10
604.604980
  20
616.172058
  0
POINT
  8
3
  10
601.443787
  20
615.334656
  0
POINT
  8
3
  10
597.776794
  20
614.533752
  0
POLYLINE
  8
8
  66
1
  70
0
  250
0
  0
VERTEX
  8
8
  10
738.472534
  20
561.848083
  0
VERTEX
  8
8
  10
729.956421
  20
561.857056
  0
VERTEX
  8
8
  10
721.446167
  20
561.754944
  0
VERTEX
  8
8
  10
716.172729
  20
561.683289
  0
VERTEX
  8
8
  10
713.578247
  20
561.794800
  0
VERTEX
  8
8
  10
711.011536
  20
562.149048
  0
VERTEX
  8
8
  10
706.951538
  20
563.496460
  0
VERTEX
  8
8
  10
703.262573
  20
565.688354
  0
VERTEX
  8
8
  10
700.676514
  20
567.664673
  0
VERTEX
  8
8
  10
698.260132
  20
569.844788
  0
VERTEX
  8
8
  10
696.038696
  20
572.210022
  0
VERTEX
  8
8
  10
694.046265
  20
574.766663
  0
VERTEX
  8
8
  10
692.037842
  20
577.995972
  0
VERTEX
  8
8
  10
690.319458
  20
581.395874
  0
VERTEX
  8
8
  10
688.798218
  20
584.917786
  0
VERTEX
  8
8
  10
687.462952
  20
588.513367
  0
VERTEX
  8
8
  10
686.016479
  20
593.516235
  0
VERTEX
  8
8
  10
685.235229
  20
598.674866
  0
VERTEX
  8
8
  10
684.934204
  20
602.381714
  0
VERTEX
  8
8
  10
684.814087
  20
606.094788
  0
VERTEX
  8
8
  10
685.050842
  20
613.590393
  0
SEQEND
  0
POINT
  8
2
  10
738.472534
  20
561.848083
  0
POINT
  8
3
  10
729.956421
  20
561.857056
  0
POINT
  8
3
  10
721.446167
  20
561.754944
  0
POINT
  8
3
  10
716.172729
  20
561.683289
  0
POINT
  8
3
  10
713.578247
  20
561.794800
  0
POINT
  8
3
  10
711.011536
  20
562.149048
  0
POINT
  8
3
  10
706.951538
  20
563.496460
  0
POINT
  8
3
  10
703.262573
  20
565.688354
  0
POINT
  8
3
  10
700.676514
  20
567.664673
  0
POINT
  8
3
  10
698.260132
  20
569.844788
  0
POINT
  8
3
  10
696.038696
  20
572.210022
  0
POINT
  8
3
  10
694.046265
  20
574.766663
  0
POINT
  8
3
  10
692.037842
  20
577.995972
  0
POINT
  8
3
  10
690.319458
  20
581.395874
  0
POINT
  8
3
  10
688.798218
  20
584.917786
  0
POINT
  8
3
  10
687.462952
  20
588.513367
  0
POINT
  8
3
  10
686.016479
  20
593.516235
  0
POINT
  8
3
  10
685.235229
  20
598.674866
  0
POINT
  8
3
  10
684.934204
  20
602.381714
  0
POINT
  8
3
  10
684.814087
  20
606.094788
  0
ENDBLK
  0
BLOCK
  8
0
  2
BLK_5_1_M
  70
64
  10
0
  20
0
  0
TEXT
  8
1
  10
877.742371
  20
693.236084
  50
0.000000
  51
0.000000
  71
0.000000
  1
PIECE NAME: BLK_5_1
  0
TEXT
  8
1
  10
877.742371
  20
688.236084
  50
0.000000
  51
0.000000
  71
0.000000
  1
SIZE: M
  0
TEXT
  8
1
  10
877.742371
  20
683.236084
  50
0.000000
  51
0.000000
  71
0.000000
  1
ANNOTATION: 
  0
TEXT
  8
1
  10
877.742371
  20
678.236084
  50
0.000000
  51
0.000000
  71
0.000000
  1
QUANTITY: 1
  0
POLYLINE
  8
1
  66
1
  70
1
  250
2
  0
VERTEX
  8
1
  10
812.845581
  20
654.984131
  0
VERTEX
  8
1
  10
813.231140
  20
673.550232
  0
VERTEX
  8
1
  10
813.569458
  20
692.117004
  0
VERTEX
  8
1
  10
813.719543
  20
702.278076
  0
VERTEX
  8
1
  10
813.844849
  20
712.436646
  0
VERTEX
  8
1
  10
813.948914
  20
722.593628
  0
VERTEX
  8
1
  10
814.035278
  20
732.750000
  0
VERTEX
  8
1
  10
814.107544
  20
742.906494
  0
VERTEX
  8
1
  10
814.169189
  20
753.064148
  0
VERTEX
  8
1
  10
814.223816
  20
763.223694
  0
VERTEX
  8
1
  10
814.274963
  20
773.386108
  0
VERTEX
  8
1
  10
846.524780
  20
774.763550
  0
VERTEX
  8
1
  10
852.861755
  20
775.151917
  0
VERTEX
  8
1
  10
859.195862
  20
775.549988
  0
VERTEX
  8
1
  10
865.526855
  20
775.967834
  0
VERTEX
  8
1
  10
871.854553
  20
776.415283
  0
VERTEX
  8
1
  10
878.178650
  20
776.902466
  0
VERTEX
  8
1
  10
884.498901
  20
777.439270
  0
VERTEX
  8
1
  10
890.815186
  20
778.035767
  0
VERTEX
  8
1
  10
897.124939
  20
778.698242
  0
VERTEX
  8
1
  10
903.426880
  20
779.420044
  0
VERTEX
  8
1
  10
909.722778
  20
780.191223
  0
VERTEX
  8
1
  10
916.014343
  20
781.002014
  0
VERTEX
  8
1
  10
922.303345
  20
781.842529
  0
VERTEX
  8
1
  10
928.591431
  20
782.703003
  0
VERTEX
  8
1
  10
934.880493
  20
783.573608
  0
VERTEX
  8
1
  10
935.584961
  20
776.692261
  0
VERTEX
  8
1
  10
936.282837
  20
769.812317
  0
VERTEX
  8
1
  10
936.967651
  20
762.932678
  0
VERTEX
  8
1
  10
937.632813
  20
756.052246
  0
VERTEX
  8
1
  10
938.272095
  20
749.170044
  0
VERTEX
  8
1
  10
938.878845
  20
742.284729
  0
VERTEX
  8
1
  10
939.446716
  20
735.395447
  0
VERTEX
  8
1
  10
939.969238
  20
728.500916
  0
VERTEX
  8
1
  10
940.441650
  20
721.606262
  0
VERTEX
  8
1
  10
940.868469
  20
714.710205
  0
VERTEX
  8
1
  10
941.256287
  20
707.812561
  0
VERTEX
  8
1
  10
941.611511
  20
700.913208
  0
VERTEX
  8
1
  10
941.940796
  20
694.012024
  0
VERTEX
  8
1
  10
942.250671
  20
687.108765
  0
VERTEX
  8
1
  10
942.547668
  20
680.203308
  0
VERTEX
  8
1
  10
942.838257
  20
673.295532
  0
VERTEX
  8
1
  10
940.008972
  20
671.529358
  0
VERTEX
  8
1
  10
937.411865
  20
669.510437
  0
VERTEX
  8
1
  10
935.193298
  20
667.049255
  0
VERTEX
  8
1
  10
933.242249
  20
664.315247
  0
VERTEX
  8
1
  10
931.915283
  20
662.313538
  0
VERTEX
  8
1
  10
930.636597
  20
660.289795
  0
VERTEX
  8
1
  10
929.420959
  20
658.237976
  0
VERTEX
  8
1
  10
928.283264
  20
656.152039
  0
VERTEX
  8
1
  10
927.238403
  20
654.025940
  0
VERTEX
  8
1
  10
926.301208
  20
651.853638
  0
VERTEX
  8
1
  10
925.329895
  20
649.179077
  0
VERTEX
  8
1
  10
924.506836
  20
646.446655
  0
VERTEX
  8
1
  10
923.801453
  20
643.671265
  0
VERTEX
  8
1
  10
923.183411
  20
640.867798
  0
VERTEX
  8
1
  10
922.622192
  20
638.051208
  0
VERTEX
  8
1
  10
920.379761
  20
625.483643
  0
VERTEX
  8
1
  10
919.308655
  20
623.433655
  0
VERTEX
  8
1
  10
918.210449
  20
621.409973
  0
VERTEX
  8
1
  10
917.056885
  20
619.438599
  0
VERTEX
  8
1
  10
915.819824
  20
617.545471
  0
VERTEX
  8
1
  10
914.471191
  20
615.756592
  0
VERTEX
  8
1
  10
912.982788
  20
614.097900
  0
VERTEX
  8
1
  10
911.573486
  20
612.788940
  0
VERTEX
  8
1
  10
910.057922
  20
611.585510
  0
VERTEX
  8
1
  10
908.452698
  20
610.476746
  0
VERTEX
  8
1
  10
906.774658
  20
609.451782
  0
VERTEX
  8
1
  10
905.040527
  20
608.499756
  0
VERTEX
  8
1
  10
903.267029
  20
607.609802
  0
VERTEX
  8
1
  10
901.471069
  20
606.771118
  0
VERTEX
  8
1
  10
899.018372
  20
605.711670
  0
VERTEX
  8
1
  10
896.535645
  20
604.795593
  0
VERTEX
  8
1
  10
893.999817
  20
604.090698
  0
VERTEX
  8
1
  10
891.404541
  20
603.645325
  0
VERTEX
  8
1
  10
888.766296
  20
603.421570
  0
VERTEX
  8
1
  10
886.113342
  20
603.362000
  0
VERTEX
  8
1
  10
880.490845
  20
603.489014
  0
VERTEX
  8
1
  10
875.753357
  20
603.509216
  0
VERTEX
  8
1
  10
871.012268
  20
603.406494
  0
VERTEX
  8
1
  10
866.267151
  20
603.241821
  0
VERTEX
  8
1
  10
861.704895
  20
603.320557
  0
VERTEX
  8
1
  10
857.129517
  20
603.331421
  0
VERTEX
  8
1
  10
852.524597
  20
603.208679
  0
VERTEX
  8
1
  10
850.211914
  20
603.086365
  0
VERTEX
  8
1
  10
847.898132
  20
602.965576
  0
VERTEX
  8
1
  10
845.591980
  20
602.898621
  0
VERTEX
  8
1
  10
843.302185
  20
602.937744
  0
VERTEX
  8
1
  10
841.037354
  20
603.135193
  0
VERTEX
  8
1
  10
838.806274
  20
603.543213
  0
VERTEX
  8
1
  10
836.419800
  20
604.272705
  0
VERTEX
  8
1
  10
834.113159
  20
605.272461
  0
VERTEX
  8
1
  10
831.912720
  20
606.500610
  0
VERTEX
  8
1
  10
829.832092
  20
607.923828
  0
VERTEX
  8
1
  10
827.881714
  20
609.510559
  0
VERTEX
  8
1
  10
826.054749
  20
611.238953
  0
VERTEX
  8
1
  10
824.572998
  20
612.828857
  0
VERTEX
  8
1
  10
823.180725
  20
614.498779
  0
VERTEX
  8
1
  10
821.878601
  20
616.241211
  0
VERTEX
  8
1
  10
820.667175
  20
618.048523
  0
VERTEX
  8
1
  10
819.546997
  20
619.913208
  0
VERTEX
  8
1
  10
818.272400
  20
622.320129
  0
VERTEX
  8
1
  10
817.137329
  20
624.794006
  0
VERTEX
  8
1
  10
816.134766
  20
627.326111
  0
VERTEX
  8
1
  10
815.257690
  20
629.907593
  0
VERTEX
  8
1
  10
814.550537
  20
632.344360
  0
VERTEX
  8
1
  10
813.950684
  20
634.808716
  0
VERTEX
  8
1
  10
813.461304
  20
637.295471
  0
VERTEX
  8
1
  10
813.085632
  20
639.799500
  0
VERTEX
  8
1
  10
812.827087
  20
642.315491
  0
VERTEX
  8
1
  10
812.665344
  20
645.475342
  0
VERTEX
  8
1
  10
812.646484
  20
648.640930
  0
VERTEX
  8
1
  10
812.722534
  20
651.810974
  0
SEQEND
  0
POINT
  8
2
  10
812.845581
  20
654.984131
  0
POINT
  8
2
  10
814.274963
  20
773.386108
  0
POINT
  8
2
  10
846.524780
  20
774.763550
  0
POINT
  8
2
  10
934.880493
  20
783.573608
  0
POINT
  8
2
  10
942.838257
  20
673.295532
  0
POINT
  8
2
  10
920.379761
  20
625.483643
  0
POINT
  8
2
  10
866.267151
  20
603.241821
  0
POINT
  8
3
  10
813.231140
  20
673.550232
  0
POINT
  8
3
  10
813.569458
  20
692.117004
  0
POINT
  8
3
  10
813.719543
  20
702.278076
  0
POINT
  8
3
  10
813.844849
  20
712.436646
  0
POINT
  8
3
  10
813.948914
  20
722.593628
  0
POINT
  8
3
  10
814.035278
  20
732.750000
  0
POINT
  8
3
  10
814.107544
  20
742.906494
  0
POINT
  8
3
  10
814.169189
  20
753.064148
  0
POINT
  8
3
  10
814.223816
  20
763.223694
  0
POINT
  8
3
  10
852.861755
  20
775.151917
  0
POINT
  8
3
  10
859.195862
  20
775.549988
  0
POINT
  8
3
  10
865.526855
  20
775.967834
  0
POINT
  8
3
  10
871.854553
  20
776.415283
  0
POINT
  8
3
  10
878.178650
  20
776.902466
  0
POINT
  8
3
  10
884.498901
  20
777.439270
  0
POINT
  8
3
  10
890.815186
  20
778.035767
  0
POINT
  8
3
  10
897.124939
  20
778.698242
  0
POINT
  8
3
  10
903.426880
  20
779.420044
  0
POINT
  8
3
  10
909.722778
  20
780.191223
  0
POINT
  8
3
  10
916.014343
  20
781.002014
  0
POINT
  8
3
  10
922.303345
  20
781.842529
  0
POINT
  8
3
  10
928.591431
  20
782.703003
  0
POINT
  8
3
  10
935.584961
  20
776.692261
  0
POINT
  8
3
  10
936.282837
  20
769.812317
  0
POINT
  8
3
  10
936.967651
  20
762.932678
  0
POINT
  8
3
  10
937.632813
  20
756.052246
  0
POINT
  8
3
  10
938.272095
  20
749.170044
  0
POINT
  8
3
  10
938.878845
  20
742.284729
  0
POINT
  8
3
  10
939.446716
  20
735.395447
  0
POINT
  8
3
  10
939.969238
  20
728.500916
  0
POINT
  8
3
  10
940.441650
  20
721.606262
  0
POINT
  8
3
  10
940.868469
  20
714.710205
  0
POINT
  8
3
  10
941.256287
  20
707.812561
  0
POINT
  8
3
  10
941.611511
  20
700.913208
  0
POINT
  8
3
  10
941.940796
  20
694.012024
  0
POINT
  8
3
  10
942.250671
  20
687.108765
  0
POINT
  8
3
  10
942.547668
  20
680.203308
  0
POINT
  8
3
  10
940.008972
  20
671.529358
  0
POINT
  8
3
  10
937.411865
  20
669.510437
  0
POINT
  8
3
  10
935.193298
  20
667.049255
  0
POINT
  8
3
  10
933.242249
  20
664.315247
  0
POINT
  8
3
  10
931.915283
  20
662.313538
  0
POINT
  8
3
  10
930.636597
  20
660.289795
  0
POINT
  8
3
  10
929.420959
  20
658.237976
  0
POINT
  8
3
  10
928.283264
  20
656.152039
  0
POINT
  8
3
  10
927.238403
  20
654.025940
  0
POINT
  8
3
  10
926.301208
  20
651.853638
  0
POINT
  8
3
  10
925.329895
  20
649.179077
  0
POINT
  8
3
  10
924.506836
  20
646.446655
  0
POINT
  8
3
  10
923.801453
  20
643.671265
  0
POINT
  8
3
  10
923.183411
  20
640.867798
  0
POINT
  8
3
  10
922.622192
  20
638.051208
  0
POINT
  8
3
  10
919.308655
  20
623.433655
  0
POINT
  8
3
  10
918.210449
  20
621.409973
  0
POINT
  8
3
  10
917.056885
  20
619.438599
  0
POINT
  8
3
  10
915.819824
  20
617.545471
  0
POINT
  8
3
  10
914.471191
  20
615.756592
  0
POINT
  8
3
  10
912.982788
  20
614.097900
  0
POINT
  8
3
  10
911.573486
  20
612.788940
  0
POINT
  8
3
  10
910.057922
  20
611.585510
  0
POINT
  8
3
  10
908.452698
  20
610.476746
  0
POINT
  8
3
  10
906.774658
  20
609.451782
  0
POINT
  8
3
  10
905.040527
  20
608.499756
  0
POINT
  8
3
  10
903.267029
  20
607.609802
  0
POINT
  8
3
  10
901.471069
  20
606.771118
  0
POINT
  8
3
  10
899.018372
  20
605.711670
  0
POINT
  8
3
  10
896.535645
  20
604.795593
  0
POINT
  8
3
  10
893.999817
  20
604.090698
  0
POINT
  8
3
  10
891.404541
  20
603.645325
  0
POINT
  8
3
  10
888.766296
  20
603.421570
  0
POINT
  8
3
  10
886.113342
  20
603.362000
  0
POINT
  8
3
  10
880.490845
  20
603.489014
  0
POINT
  8
3
  10
875.753357
  20
603.509216
  0
POINT
  8
3
  10
871.012268
  20
603.406494
  0
POINT
  8
3
  10
861.704895
  20
603.320557
  0
POINT
  8
3
  10
857.129517
  20
603.331421
  0
POINT
  8
3
  10
852.524597
  20
603.208679
  0
POINT
  8
3
  10
850.211914
  20
603.086365
  0
POINT
  8
3
  10
847.898132
  20
602.965576
  0
POINT
  8
3
  10
845.591980
  20
602.898621
  0
POINT
  8
3
  10
843.302185
  20
602.937744
  0
POINT
  8
3
  10
841.037354
  20
603.135193
  0
POINT
  8
3
  10
838.806274
  20
603.543213
  0
POINT
  8
3
  10
836.419800
  20
604.272705
  0
POINT
  8
3
  10
834.113159
  20
605.272461
  0
POINT
  8
3
  10
831.912720
  20
606.500610
  0
POINT
  8
3
  10
829.832092
  20
607.923828
  0
POINT
  8
3
  10
827.881714
  20
609.510559
  0
POINT
  8
3
  10
826.054749
  20
611.238953
  0
POINT
  8
3
  10
824.572998
  20
612.828857
  0
POINT
  8
3
  10
823.180725
  20
614.498779
  0
POINT
  8
3
  10
821.878601
  20
616.241211
  0
POINT
  8
3
  10
820.667175
  20
618.048523
  0
POINT
  8
3
  10
819.546997
  20
619.913208
  0
POINT
  8
3
  10
818.272400
  20
622.320129
  0
POINT
  8
3
  10
817.137329
  20
624.794006
  0
POINT
  8
3
  10
816.134766
  20
627.326111
  0
POINT
  8
3
  10
815.257690
  20
629.907593
  0
POINT
  8
3
  10
814.550537
  20
632.344360
  0
POINT
  8
3
  10
813.950684
  20
634.808716
  0
POINT
  8
3
  10
813.461304
  20
637.295471
  0
POINT
  8
3
  10
813.085632
  20
639.799500
  0
POINT
  8
3
  10
812.827087
  20
642.315491
  0
POINT
  8
3
  10
812.665344
  20
645.475342
  0
POINT
  8
3
  10
812.646484
  20
648.640930
  0
POINT
  8
3
  10
812.722534
  20
651.810974
  0
LINE
  8
7
  10
877.742371
  20
603.236084
  11
877.742371
  21
783.236084
  0
POLYLINE
  8
8
  66
1
  70
0
  250
0
  0
VERTEX
  8
8
  10
940.992554
  20
716.489441
  0
VERTEX
  8
8
  10
932.766296
  20
716.164307
  0
VERTEX
  8
8
  10
924.544800
  20
716.159729
  0
VERTEX
  8
8
  10
913.706177
  20
716.418640
  0
VERTEX
  8
8
  10
908.299622
  20
716.711670
  0
VERTEX
  8
8
  10
902.905396
  20
717.175232
  0
VERTEX
  8
8
  10
898.126892
  20
717.763000
  0
VERTEX
  8
8
  10
893.372864
  20
718.524109
  0
VERTEX
  8
8
  10
888.655640
  20
719.459473
  0
VERTEX
  8
8
  10
883.977173
  20
720.574341
  0
VERTEX
  8
8
  10
877.241394
  20
722.613525
  0
VERTEX
  8
8
  10
873.988403
  20
723.911621
  0
VERTEX
  8
8
  10
870.842407
  20
725.447998
  0
VERTEX
  8
8
  10
867.961853
  20
727.156311
  0
VERTEX
  8
8
  10
865.214966
  20
729.074951
  0
VERTEX
  8
8
  10
862.601929
  20
731.179077
  0
VERTEX
  8
8
  10
860.140503
  20
733.457642
  0
VERTEX
  8
8
  10
856.333191
  20
737.777344
  0
VERTEX
  8
8
  10
854.676941
  20
740.136536
  0
VERTEX
  8
8
  10
853.209351
  20
742.617004
  0
VERTEX
  8
8
  10
850.788696
  20
747.995605
  0
VERTEX
  8
8
  10
849.007690
  20
753.651917
  0
VERTEX
  8
8
  10
847.859009
  20
759.165344
  0
VERTEX
  8
8
  10
847.089966
  20
764.766724
  0
VERTEX
  8
8
  10
846.571167
  20
771.526245
  0
VERTEX
  8
8
  10
846.526001
  20
774.785339
  0
SEQEND
  0
POINT
  8
2
  10
940.992554
  20
716.489441
  0
POINT
  8
3
  10
932.766296
  20
716.164307
  0
POINT
  8
3
  10
924.544800
  20
716.159729
  0
POINT
  8
3
  10
913.706177
  20
716.418640
  0
POINT
  8
3
  10
908.299622
  20
716.711670
  0
POINT
  8
3
  10
902.905396
  20
717.175232
  0
POINT
  8
3
  10
898.126892
  20
717.763000
  0
POINT
  8
3
  10
893.372864
  20
718.524109
  0
POINT
  8
3
  10
888.655640
  20
719.459473
  0
POINT
  8
3
  10
883.977173
  20
720.574341
  0
POINT
  8
3
  10
877.241394
  20
722.613525
  0
POINT
  8
3
  10
873.988403
  20
723.911621
  0
POINT
  8
3
  10
870.842407
  20
725.447998
  0
POINT
  8
3
  10
867.961853
  20
727.156311
  0
POINT
  8
3
  10
865.214966
  20
729.074951
  0
POINT
  8
3
  10
862.601929
  20
731.179077
  0
POINT
  8
3
  10
860.140503
  20
733.457642
  0
POINT
  8
3
  10
856.333191
  20
737.777344
  0
POINT
  8
3
  10
854.676941
  20
740.136536
  0
POINT
  8
3
  10
853.209351
  20
742.617004
  0
POINT
  8
3
  10
850.788696
  20
747.995605
  0
POINT
  8
3
  10
849.007690
  20
753.651917
  0
POINT
  8
3
  10
847.859009
  20
759.165344
  0
POINT
  8
3
  10
847.089966
  20
764.766724
  0
POINT
  8
3
  10
846.571167
  20
771.526245
  0
ENDBLK
  0
BLOCK
  8
0
  2
BLK_7_1_M
  70
64
  10
0
  20
0
  0
TEXT
  8
1
  10
666.686157
  20
831.113647
  50
0.000000
  51
0.000000
  71
0.000000
  1
PIECE NAME: BLK_7_1
  0
TEXT
  8
1
  10
666.686157
  20
826.113647
  50
0.000000
  51
0.000000
  71
0.000000
  1
SIZE: M
  0
TEXT
  8
1
  10
666.686157
  20
821.113647
  50
0.000000
  51
0.000000
  71
0.000000
  1
ANNOTATION: 
  0
TEXT
  8
1
  10
666.686157
  20
816.113647
  50
0.000000
  51
0.000000
  71
0.000000
  1
QUANTITY: 1
  0
POLYLINE
  8
1
  66
1
  70
1
  250
2
  0
VERTEX
  8
1
  10
554.043274
  20
797.271790
  0
VERTEX
  8
1
  10
554.043274
  20
837.526672
  0
VERTEX
  8
1
  10
584.043274
  20
837.645813
  0
VERTEX
  8
1
  10
616.852295
  20
838.766724
  0
VERTEX
  8
1
  10
622.322937
  20
838.956970
  0
VERTEX
  8
1
  10
627.791321
  20
839.161011
  0
VERTEX
  8
1
  10
633.257324
  20
839.392517
  0
VERTEX
  8
1
  10
638.720886
  20
839.665344
  0
VERTEX
  8
1
  10
644.181885
  20
839.993164
  0
VERTEX
  8
1
  10
649.640259
  20
840.389709
  0
VERTEX
  8
1
  10
652.856689
  20
840.660645
  0
VERTEX
  8
1
  10
656.070435
  20
840.959778
  0
VERTEX
  8
1
  10
659.281433
  20
841.286682
  0
VERTEX
  8
1
  10
662.489502
  20
841.641113
  0
VERTEX
  8
1
  10
665.694458
  20
842.022705
  0
VERTEX
  8
1
  10
668.896179
  20
842.431152
  0
VERTEX
  8
1
  10
672.094482
  20
842.866150
  0
VERTEX
  8
1
  10
675.289307
  20
843.327393
  0
VERTEX
  8
1
  10
678.480469
  20
843.814453
  0
VERTEX
  8
1
  10
681.667786
  20
844.327148
  0
VERTEX
  8
1
  10
684.851074
  20
844.865112
  0
VERTEX
  8
1
  10
688.030273
  20
845.427979
  0
VERTEX
  8
1
  10
691.205200
  20
846.015442
  0
VERTEX
  8
1
  10
694.375671
  20
846.627258
  0
VERTEX
  8
1
  10
697.541626
  20
847.263000
  0
VERTEX
  8
1
  10
701.493286
  20
848.090881
  0
VERTEX
  8
1
  10
705.436279
  20
848.953369
  0
VERTEX
  8
1
  10
709.371033
  20
849.848206
  0
VERTEX
  8
1
  10
713.298157
  20
850.773315
  0
VERTEX
  8
1
  10
717.218262
  20
851.726563
  0
VERTEX
  8
1
  10
721.131897
  20
852.705811
  0
VERTEX
  8
1
  10
725.039612
  20
853.708862
  0
VERTEX
  8
1
  10
728.942017
  20
854.733704
  0
VERTEX
  8
1
  10
732.839600
  20
855.778076
  0
VERTEX
  8
1
  10
736.733032
  20
856.839905
  0
VERTEX
  8
1
  10
740.622803
  20
857.917053
  0
VERTEX
  8
1
  10
744.509583
  20
859.007385
  0
VERTEX
  8
1
  10
765.190796
  20
864.955505
  0
VERTEX
  8
1
  10
772.151184
  20
846.890381
  0
VERTEX
  8
1
  10
775.770691
  20
837.119324
  0
VERTEX
  8
1
  10
779.328979
  20
827.325195
  0
VERTEX
  8
1
  10
774.896423
  20
825.923096
  0
VERTEX
  8
1
  10
770.463745
  20
824.525696
  0
VERTEX
  8
1
  10
766.029419
  20
823.137390
  0
VERTEX
  8
1
  10
761.592224
  20
821.762695
  0
VERTEX
  8
1
  10
757.150635
  20
820.405884
  0
VERTEX
  8
1
  10
752.703369
  20
819.071533
  0
VERTEX
  8
1
  10
748.248962
  20
817.763916
  0
VERTEX
  8
1
  10
743.786072
  20
816.487488
  0
VERTEX
  8
1
  10
739.313354
  20
815.246704
  0
VERTEX
  8
1
  10
734.829346
  20
814.045898
  0
VERTEX
  8
1
  10
730.332642
  20
812.889526
  0
VERTEX
  8
1
  10
723.368835
  20
811.195313
  0
VERTEX
  8
1
  10
716.384583
  20
809.589539
  0
VERTEX
  8
1
  10
709.385132
  20
808.042297
  0
VERTEX
  8
1
  10
702.375427
  20
806.523743
  0
VERTEX
  8
1
  10
696.854004
  20
805.564148
  0
VERTEX
  8
1
  10
691.330200
  20
804.637634
  0
VERTEX
  8
1
  10
685.797485
  20
803.776794
  0
VERTEX
  8
1
  10
680.249390
  20
803.014282
  0
VERTEX
  8
1
  10
670.418030
  20
801.910645
  0
VERTEX
  8
1
  10
651.299011
  20
800.345337
  0
VERTEX
  8
1
  10
644.046387
  20
799.846313
  0
VERTEX
  8
1
  10
636.791992
  20
799.412537
  0
VERTEX
  8
1
  10
629.534058
  20
799.039978
  0
VERTEX
  8
1
  10
622.270874
  20
798.724792
  0
VERTEX
  8
1
  10
612.714783
  20
798.389099
  0
VERTEX
  8
1
  10
603.159973
  20
798.123352
  0
VERTEX
  8
1
  10
593.603760
  20
797.904175
  0
VERTEX
  8
1
  10
584.043274
  20
797.708069
  0
SEQEND
  0
POINT
  8
2
  10
554.043274
  20
797.271790
  0
POINT
  8
2
  10
554.043274
  20
837.526672
  0
POINT
  8
2
  10
584.043274
  20
837.645813
  0
POINT
  8
2
  10
765.190796
  20
864.955505
  0
POINT
  8
2
  10
779.328979
  20
827.325195
  0
POINT
  8
2
  10
702.375427
  20
806.523743
  0
POINT
  8
2
  10
670.418030
  20
801.910645
  0
POINT
  8
2
  10
584.043274
  20
797.708069
  0
POINT
  8
3
  10
616.852295
  20
838.766724
  0
POINT
  8
3
  10
622.322937
  20
838.956970
  0
POINT
  8
3
  10
627.791321
  20
839.161011
  0
POINT
  8
3
  10
633.257324
  20
839.392517
  0
POINT
  8
3
  10
638.720886
  20
839.665344
  0
POINT
  8
3
  10
644.181885
  20
839.993164
  0
POINT
  8
3
  10
649.640259
  20
840.389709
  0
POINT
  8
3
  10
652.856689
  20
840.660645
  0
POINT
  8
3
  10
656.070435
  20
840.959778
  0
POINT
  8
3
  10
659.281433
  20
841.286682
  0
POINT
  8
3
  10
662.489502
  20
841.641113
  0
POINT
  8
3
  10
665.694458
  20
842.022705
  0
POINT
  8
3
  10
668.896179
  20
842.431152
  0
POINT
  8
3
  10
672.094482
  20
842.866150
  0
POINT
  8
3
  10
675.289307
  20
843.327393
  0
POINT
  8
3
  10
678.480469
  20
843.814453
  0
POINT
  8
3
  10
681.667786
  20
844.327148
  0
POINT
  8
3
  10
684.851074
  20
844.865112
  0
POINT
  8
3
  10
688.030273
  20
845.427979
  0
POINT
  8
3
  10
691.205200
  20
846.015442
  0
POINT
  8
3
  10
694.375671
  20
846.627258
  0
POINT
  8
3
  10
697.541626
  20
847.263000
  0
POINT
  8
3
  10
701.493286
  20
848.090881
  0
POINT
  8
3
  10
705.436279
  20
848.953369
  0
POINT
  8
3
  10
709.371033
  20
849.848206
  0
POINT
  8
3
  10
713.298157
  20
850.773315
  0
POINT
  8
3
  10
717.218262
  20
851.726563
  0
POINT
  8
3
  10
721.131897
  20
852.705811
  0
POINT
  8
3
  10
725.039612
  20
853.708862
  0
POINT
  8
3
  10
728.942017
  20
854.733704
  0
POINT
  8
3
  10
732.839600
  20
855.778076
  0
POINT
  8
3
  10
736.733032
  20
856.839905
  0
POINT
  8
3
  10
740.622803
  20
857.917053
  0
POINT
  8
3
  10
744.509583
  20
859.007385
  0
POINT
  8
3
  10
772.151184
  20
846.890381
  0
POINT
  8
3
  10
775.770691
  20
837.119324
  0
POINT
  8
3
  10
774.896423
  20
825.923096
  0
POINT
  8
3
  10
770.463745
  20
824.525696
  0
POINT
  8
3
  10
766.029419
  20
823.137390
  0
POINT
  8
3
  10
761.592224
  20
821.762695
  0
POINT
  8
3
  10
757.150635
  20
820.405884
  0
POINT
  8
3
  10
752.703369
  20
819.071533
  0
POINT
  8
3
  10
748.248962
  20
817.763916
  0
POINT
  8
3
  10
743.786072
  20
816.487488
  0
POINT
  8
3
  10
739.313354
  20
815.246704
  0
POINT
  8
3
  10
734.829346
  20
814.045898
  0
POINT
  8
3
  10
730.332642
  20
812.889526
  0
POINT
  8
3
  10
723.368835
  20
811.195313
  0
POINT
  8
3
  10
716.384583
  20
809.589539
  0
POINT
  8
3
  10
709.385132
  20
808.042297
  0
POINT
  8
3
  10
696.854004
  20
805.564148
  0
POINT
  8
3
  10
691.330200
  20
804.637634
  0
POINT
  8
3
  10
685.797485
  20
803.776794
  0
POINT
  8
3
  10
680.249390
  20
803.014282
  0
POINT
  8
3
  10
651.299011
  20
800.345337
  0
POINT
  8
3
  10
644.046387
  20
799.846313
  0
POINT
  8
3
  10
636.791992
  20
799.412537
  0
POINT
  8
3
  10
629.534058
  20
799.039978
  0
POINT
  8
3
  10
622.270874
  20
798.724792
  0
POINT
  8
3
  10
612.714783
  20
798.389099
  0
POINT
  8
3
  10
603.159973
  20
798.123352
  0
POINT
  8
3
  10
593.603760
  20
797.904175
  0
LINE
  8
7
  10
666.686157
  20
741.113647
  11
666.686157
  21
921.113647
  0
POLYLINE
  8
8
  66
1
  70
0
  250
0
  0
VERTEX
  8
8
  10
584.043274
  20
797.707642
  0
VERTEX
  8
8
  10
584.043762
  20
837.645996
  0
SEQEND
  0
POINT
  8
2
  10
584.043274
  20
797.707642
  0
POLYLINE
  8
8
  66
1
  70
0
  250
0
  0
VERTEX
  8
8
  10
593.305969
  20
817.695068
  0
VERTEX
  8
8
  10
613.290161
  20
818.500122
  0
SEQEND
  0
POINT
  8
2
  10
593.305969
  20
817.695068
  0
POLYLINE
  8
8
  66
1
  70
0
  250
0
  0
VERTEX
  8
8
  10
613.218018
  20
820.298706
  0
VERTEX
  8
8
  10
613.362183
  20
816.701599
  0
SEQEND
  0
POINT
  8
2
  10
613.218018
  20
820.298706
  0
POLYLINE
  8
8
  66
1
  70
0
  250
0
  0
VERTEX
  8
8
  10
595.232239
  20
819.574036
  0
VERTEX
  8
8
  10
595.376282
  20
815.976990
  0
SEQEND
  0
POINT
  8
2
  10
595.232239
  20
819.574036
  0
POLYLINE
  8
8
  66
1
  70
1
  250
0
  0
VERTEX
  8
8
  10
604.304565
  20
817.775574
  0
VERTEX
  8
8
  10
603.897278
  20
815.412537
  0
VERTEX
  8
8
  10
603.098450
  20
813.275452
  0
VERTEX
  8
8
  10
601.647461
  20
811.515320
  0
VERTEX
  8
8
  10
599.805054
  20
809.981079
  0
VERTEX
  8
8
  10
597.554688
  20
809.152100
  0
VERTEX
  8
8
  10
595.304260
  20
808.775269
  0
VERTEX
  8
8
  10
593.053955
  20
809.152100
  0
VERTEX
  8
8
  10
590.803589
  20
809.981079
  0
VERTEX
  8
8
  10
588.961121
  20
811.515259
  0
VERTEX
  8
8
  10
587.510071
  20
813.275452
  0
VERTEX
  8
8
  10
586.711304
  20
815.412476
  0
VERTEX
  8
8
  10
586.304077
  20
817.775574
  0
VERTEX
  8
8
  10
586.711304
  20
820.138611
  0
VERTEX
  8
8
  10
587.510071
  20
822.275635
  0
VERTEX
  8
8
  10
588.961121
  20
824.035767
  0
VERTEX
  8
8
  10
590.803589
  20
825.569946
  0
VERTEX
  8
8
  10
593.053955
  20
826.398926
  0
VERTEX
  8
8
  10
595.304260
  20
826.775757
  0
VERTEX
  8
8
  10
597.554688
  20
826.398926
  0
VERTEX
  8
8
  10
599.805054
  20
825.569946
  0
VERTEX
  8
8
  10
603.098450
  20
822.275635
  0
VERTEX
  8
8
  10
604.304565
  20
817.775574
  0
SEQEND
  0
POINT
  8
2
  10
604.304565
  20
817.775574
  0
POINT
  8
2
  10
599.805054
  20
809.981079
  0
POINT
  8
2
  10
590.803589
  20
809.981079
  0
POINT
  8
2
  10
586.304077
  20
817.775574
  0
POINT
  8
2
  10
590.803589
  20
825.569946
  0
POINT
  8
2
  10
599.805054
  20
825.569946
  0
POINT
  8
2
  10
603.098450
  20
822.275635
  0
POINT
  8
3
  10
603.897278
  20
815.412537
  0
POINT
  8
3
  10
603.098450
  20
813.275452
  0
POINT
  8
3
  10
601.647461
  20
811.515320
  0
POINT
  8
3
  10
597.554688
  20
809.152100
  0
POINT
  8
3
  10
595.304260
  20
808.775269
  0
POINT
  8
3
  10
593.053955
  20
809.152100
  0
POINT
  8
3
  10
588.961121
  20
811.515259
  0
POINT
  8
3
  10
587.510071
  20
813.275452
  0
POINT
  8
3
  10
586.711304
  20
815.412476
  0
POINT
  8
3
  10
586.711304
  20
820.138611
  0
POINT
  8
3
  10
587.510071
  20
822.275635
  0
POINT
  8
3
  10
588.961121
  20
824.035767
  0
POINT
  8
3
  10
593.053955
  20
826.398926
  0
POINT
  8
3
  10
595.304260
  20
826.775757
  0
POINT
  8
3
  10
597.554688
  20
826.398926
  0
POLYLINE
  8
8
  66
1
  70
0
  250
0
  0
VERTEX
  8
8
  10
593.233948
  20
819.493652
  0
VERTEX
  8
8
  10
593.377991
  20
815.896545
  0
SEQEND
  0
POINT
  8
2
  10
593.233948
  20
819.493652
  0
POLYLINE
  8
8
  66
1
  70
0
  250
0
  0
VERTEX
  8
8
  10
594.941772
  20
826.768250
  0
VERTEX
  8
8
  10
595.666870
  20
808.782898
  0
SEQEND
  0
POINT
  8
2
  10
594.941772
  20
826.768250
  0
POLYLINE
  8
8
  66
1
  70
0
  250
0
  0
VERTEX
  8
8
  10
586.311340
  20
817.413269
  0
VERTEX
  8
8
  10
604.297180
  20
818.137878
  0
SEQEND
  0
POINT
  8
2
  10
586.311340
  20
817.413269
  0
ENDBLK
  0
BLOCK
  8
0
  2
BLK_8_1_M
  70
64
  10
0
  20
0
  0
TEXT
  8
1
  10
424.169556
  20
833.744385
  50
0.000000
  51
0.000000
  71
0.000000
  1
PIECE NAME: BLK_8_1
  0
TEXT
  8
1
  10
424.169556
  20
828.744385
  50
0.000000
  51
0.000000
  71
0.000000
  1
SIZE: M
  0
TEXT
  8
1
  10
424.169556
  20
823.744385
  50
0.000000
  51
0.000000
  71
0.000000
  1
ANNOTATION: 
  0
TEXT
  8
1
  10
424.169556
  20
818.744385
  50
0.000000
  51
0.000000
  71
0.000000
  1
QUANTITY: 1
  0
POLYLINE
  8
1
  66
1
  70
1
  250
2
  0
VERTEX
  8
1
  10
326.527374
  20
829.738281
  0
VERTEX
  8
1
  10
330.085022
  20
839.532104
  0
VERTEX
  8
1
  10
333.703857
  20
849.302979
  0
VERTEX
  8
1
  10
340.663055
  20
867.368164
  0
VERTEX
  8
1
  10
345.036743
  20
866.095886
  0
VERTEX
  8
1
  10
349.410400
  20
864.826843
  0
VERTEX
  8
1
  10
353.785004
  20
863.564087
  0
VERTEX
  8
1
  10
358.161530
  20
862.310791
  0
VERTEX
  8
1
  10
362.540985
  20
861.070068
  0
VERTEX
  8
1
  10
366.924347
  20
859.845032
  0
VERTEX
  8
1
  10
371.312592
  20
858.638794
  0
VERTEX
  8
1
  10
375.706696
  20
857.454407
  0
VERTEX
  8
1
  10
380.107666
  20
856.295044
  0
VERTEX
  8
1
  10
384.516479
  20
855.163818
  0
VERTEX
  8
1
  10
388.934113
  20
854.063843
  0
VERTEX
  8
1
  10
393.361542
  20
852.998230
  0
VERTEX
  8
1
  10
397.799774
  20
851.970032
  0
VERTEX
  8
1
  10
400.688171
  20
851.323730
  0
VERTEX
  8
1
  10
403.580597
  20
850.695007
  0
VERTEX
  8
1
  10
406.476898
  20
850.084229
  0
VERTEX
  8
1
  10
409.377045
  20
849.491760
  0
VERTEX
  8
1
  10
412.280884
  20
848.917908
  0
VERTEX
  8
1
  10
415.188324
  20
848.363159
  0
VERTEX
  8
1
  10
418.099243
  20
847.827820
  0
VERTEX
  8
1
  10
421.013611
  20
847.312317
  0
VERTEX
  8
1
  10
423.931274
  20
846.816895
  0
VERTEX
  8
1
  10
426.852112
  20
846.341980
  0
VERTEX
  8
1
  10
429.776093
  20
845.887939
  0
VERTEX
  8
1
  10
432.703064
  20
845.455200
  0
VERTEX
  8
1
  10
435.632935
  20
845.044067
  0
VERTEX
  8
1
  10
438.565613
  20
844.654907
  0
VERTEX
  8
1
  10
441.500977
  20
844.288086
  0
VERTEX
  8
1
  10
444.438965
  20
843.944031
  0
VERTEX
  8
1
  10
447.379425
  20
843.623047
  0
VERTEX
  8
1
  10
450.322327
  20
843.325500
  0
VERTEX
  8
1
  10
453.267487
  20
843.051758
  0
VERTEX
  8
1
  10
456.214844
  20
842.802246
  0
VERTEX
  8
1
  10
461.672791
  20
842.403015
  0
VERTEX
  8
1
  10
467.133636
  20
842.074158
  0
VERTEX
  8
1
  10
472.597198
  20
841.801514
  0
VERTEX
  8
1
  10
478.063354
  20
841.570923
  0
VERTEX
  8
1
  10
483.531952
  20
841.368225
  0
VERTEX
  8
1
  10
489.002808
  20
841.179321
  0
VERTEX
  8
1
  10
521.811768
  20
840.058594
  0
VERTEX
  8
1
  10
521.811768
  20
800.120667
  0
VERTEX
  8
1
  10
514.600342
  20
800.271790
  0
VERTEX
  8
1
  10
507.391846
  20
800.433960
  0
VERTEX
  8
1
  10
500.185608
  20
800.618530
  0
VERTEX
  8
1
  10
492.980957
  20
800.836670
  0
VERTEX
  8
1
  10
485.777374
  20
801.099609
  0
VERTEX
  8
1
  10
478.574158
  20
801.418701
  0
VERTEX
  8
1
  10
471.374237
  20
801.801270
  0
VERTEX
  8
1
  10
464.179413
  20
802.239624
  0
VERTEX
  8
1
  10
456.987946
  20
802.722778
  0
VERTEX
  8
1
  10
449.798096
  20
803.239502
  0
VERTEX
  8
1
  10
442.608185
  20
803.778687
  0
VERTEX
  8
1
  10
435.416443
  20
804.329163
  0
VERTEX
  8
1
  10
403.479248
  20
808.947449
  0
VERTEX
  8
1
  10
397.918396
  20
810.198792
  0
VERTEX
  8
1
  10
392.361786
  20
811.459229
  0
VERTEX
  8
1
  10
386.811340
  20
812.738708
  0
VERTEX
  8
1
  10
381.269043
  20
814.046936
  0
VERTEX
  8
1
  10
375.736816
  20
815.393677
  0
VERTEX
  8
1
  10
370.216553
  20
816.788818
  0
VERTEX
  8
1
  10
364.710266
  20
818.242065
  0
VERTEX
  8
1
  10
359.220123
  20
819.759766
  0
VERTEX
  8
1
  10
353.747253
  20
821.334717
  0
VERTEX
  8
1
  10
348.288330
  20
822.957520
  0
VERTEX
  8
1
  10
342.840149
  20
824.618713
  0
VERTEX
  8
1
  10
337.399414
  20
826.308899
  0
VERTEX
  8
1
  10
331.962921
  20
828.018555
  0
SEQEND
  0
POINT
  8
2
  10
326.527374
  20
829.738281
  0
POINT
  8
2
  10
340.663055
  20
867.368164
  0
POINT
  8
2
  10
521.811768
  20
840.058594
  0
POINT
  8
2
  10
521.811768
  20
800.120667
  0
POINT
  8
2
  10
435.416443
  20
804.329163
  0
POINT
  8
2
  10
403.479248
  20
808.947449
  0
POINT
  8
3
  10
330.085022
  20
839.532104
  0
POINT
  8
3
  10
333.703857
  20
849.302979
  0
POINT
  8
3
  10
345.036743
  20
866.095886
  0
POINT
  8
3
  10
349.410400
  20
864.826843
  0
POINT
  8
3
  10
353.785004
  20
863.564087
  0
POINT
  8
3
  10
358.161530
  20
862.310791
  0
POINT
  8
3
  10
362.540985
  20
861.070068
  0
POINT
  8
3
  10
366.924347
  20
859.845032
  0
POINT
  8
3
  10
371.312592
  20
858.638794
  0
POINT
  8
3
  10
375.706696
  20
857.454407
  0
POINT
  8
3
  10
380.107666
  20
856.295044
  0
POINT
  8
3
  10
384.516479
  20
855.163818
  0
POINT
  8
3
  10
388.934113
  20
854.063843
  0
POINT
  8
3
  10
393.361542
  20
852.998230
  0
POINT
  8
3
  10
397.799774
  20
851.970032
  0
POINT
  8
3
  10
400.688171
  20
851.323730
  0
POINT
  8
3
  10
403.580597
  20
850.695007
  0
POINT
  8
3
  10
406.476898
  20
850.084229
  0
POINT
  8
3
  10
409.377045
  20
849.491760
  0
POINT
  8
3
  10
412.280884
  20
848.917908
  0
POINT
  8
3
  10
415.188324
  20
848.363159
  0
POINT
  8
3
  10
418.099243
  20
847.827820
  0
POINT
  8
3
  10
421.013611
  20
847.312317
  0
POINT
  8
3
  10
423.931274
  20
846.816895
  0
POINT
  8
3
  10
426.852112
  20
846.341980
  0
POINT
  8
3
  10
429.776093
  20
845.887939
  0
POINT
  8
3
  10
432.703064
  20
845.455200
  0
POINT
  8
3
  10
435.632935
  20
845.044067
  0
POINT
  8
3
  10
438.565613
  20
844.654907
  0
POINT
  8
3
  10
441.500977
  20
844.288086
  0
POINT
  8
3
  10
444.438965
  20
843.944031
  0
POINT
  8
3
  10
447.379425
  20
843.623047
  0
POINT
  8
3
  10
450.322327
  20
843.325500
  0
POINT
  8
3
  10
453.267487
  20
843.051758
  0
POINT
  8
3
  10
456.214844
  20
842.802246
  0
POINT
  8
3
  10
461.672791
  20
842.403015
  0
POINT
  8
3
  10
467.133636
  20
842.074158
  0
POINT
  8
3
  10
472.597198
  20
841.801514
  0
POINT
  8
3
  10
478.063354
  20
841.570923
  0
POINT
  8
3
  10
483.531952
  20
841.368225
  0
POINT
  8
3
  10
489.002808
  20
841.179321
  0
POINT
  8
3
  10
514.600342
  20
800.271790
  0
POINT
  8
3
  10
507.391846
  20
800.433960
  0
POINT
  8
3
  10
500.185608
  20
800.618530
  0
POINT
  8
3
  10
492.980957
  20
800.836670
  0
POINT
  8
3
  10
485.777374
  20
801.099609
  0
POINT
  8
3
  10
478.574158
  20
801.418701
  0
POINT
  8
3
  10
471.374237
  20
801.801270
  0
POINT
  8
3
  10
464.179413
  20
802.239624
  0
POINT
  8
3
  10
456.987946
  20
802.722778
  0
POINT
  8
3
  10
449.798096
  20
803.239502
  0
POINT
  8
3
  10
442.608185
  20
803.778687
  0
POINT
  8
3
  10
397.918396
  20
810.198792
  0
POINT
  8
3
  10
392.361786
  20
811.459229
  0
POINT
  8
3
  10
386.811340
  20
812.738708
  0
POINT
  8
3
  10
381.269043
  20
814.046936
  0
POINT
  8
3
  10
375.736816
  20
815.393677
  0
POINT
  8
3
  10
370.216553
  20
816.788818
  0
POINT
  8
3
  10
364.710266
  20
818.242065
  0
POINT
  8
3
  10
359.220123
  20
819.759766
  0
POINT
  8
3
  10
353.747253
  20
821.334717
  0
POINT
  8
3
  10
348.288330
  20
822.957520
  0
POINT
  8
3
  10
342.840149
  20
824.618713
  0
POINT
  8
3
  10
337.399414
  20
826.308899
  0
POINT
  8
3
  10
331.962921
  20
828.018555
  0
LINE
  8
7
  10
424.169556
  20
743.744385
  11
424.169556
  21
923.744385
  0
POLYLINE
  8
8
  66
1
  70
1
  250
0
  0
VERTEX
  8
8
  10
519.550964
  20
820.188171
  0
VERTEX
  8
8
  10
518.344971
  20
815.688110
  0
VERTEX
  8
8
  10
516.810669
  20
813.845154
  0
VERTEX
  8
8
  10
515.050293
  20
812.393799
  0
VERTEX
  8
8
  10
512.913513
  20
811.595154
  0
VERTEX
  8
8
  10
510.550781
  20
811.187988
  0
VERTEX
  8
8
  10
508.188019
  20
811.595154
  0
VERTEX
  8
8
  10
506.051270
  20
812.393799
  0
VERTEX
  8
8
  10
504.290894
  20
813.845154
  0
VERTEX
  8
8
  10
502.756592
  20
815.688110
  0
VERTEX
  8
8
  10
501.550598
  20
820.188171
  0
VERTEX
  8
8
  10
502.756592
  20
824.688293
  0
VERTEX
  8
8
  10
504.290894
  20
826.531250
  0
VERTEX
  8
8
  10
506.051270
  20
827.982605
  0
VERTEX
  8
8
  10
508.188019
  20
828.781250
  0
VERTEX
  8
8
  10
510.550781
  20
829.188477
  0
VERTEX
  8
8
  10
512.913513
  20
828.781250
  0
VERTEX
  8
8
  10
515.050293
  20
827.982605
  0
VERTEX
  8
8
  10
516.810669
  20
826.531250
  0
VERTEX
  8
8
  10
518.344971
  20
824.688293
  0
VERTEX
  8
8
  10
519.550964
  20
820.188171
  0
SEQEND
  0
POINT
  8
2
  10
519.550964
  20
820.188171
  0
POINT
  8
2
  10
518.344971
  20
815.688110
  0
POINT
  8
2
  10
510.550781
  20
811.187988
  0
POINT
  8
2
  10
502.756592
  20
815.688110
  0
POINT
  8
2
  10
501.550598
  20
820.188171
  0
POINT
  8
2
  10
502.756592
  20
824.688293
  0
POINT
  8
2
  10
510.550781
  20
829.188477
  0
POINT
  8
2
  10
518.344971
  20
824.688293
  0
POINT
  8
3
  10
516.810669
  20
813.845154
  0
POINT
  8
3
  10
515.050293
  20
812.393799
  0
POINT
  8
3
  10
512.913513
  20
811.595154
  0
POINT
  8
3
  10
508.188019
  20
811.595154
  0
POINT
  8
3
  10
506.051270
  20
812.393799
  0
POINT
  8
3
  10
504.290894
  20
813.845154
  0
POINT
  8
3
  10
504.290894
  20
826.531250
  0
POINT
  8
3
  10
506.051270
  20
827.982605
  0
POINT
  8
3
  10
508.188019
  20
828.781250
  0
POINT
  8
3
  10
512.913513
  20
828.781250
  0
POINT
  8
3
  10
515.050293
  20
827.982605
  0
POINT
  8
3
  10
516.810669
  20
826.531250
  0
POLYLINE
  8
8
  66
1
  70
0
  250
0
  0
VERTEX
  8
8
  10
512.549072
  20
820.107666
  0
VERTEX
  8
8
  10
492.564941
  20
820.912720
  0
SEQEND
  0
POINT
  8
2
  10
512.549072
  20
820.107666
  0
POLYLINE
  8
8
  66
1
  70
0
  250
0
  0
VERTEX
  8
8
  10
492.636963
  20
822.711243
  0
VERTEX
  8
8
  10
492.492859
  20
819.114197
  0
SEQEND
  0
POINT
  8
2
  10
492.636963
  20
822.711243
  0
POLYLINE
  8
8
  66
1
  70
0
  250
0
  0
VERTEX
  8
8
  10
510.622742
  20
821.986694
  0
VERTEX
  8
8
  10
510.478760
  20
818.389648
  0
SEQEND
  0
POINT
  8
2
  10
510.622742
  20
821.986694
  0
POLYLINE
  8
8
  66
1
  70
0
  250
0
  0
VERTEX
  8
8
  10
512.621094
  20
821.906189
  0
VERTEX
  8
8
  10
512.477051
  20
818.309143
  0
SEQEND
  0
POINT
  8
2
  10
512.621094
  20
821.906189
  0
POLYLINE
  8
8
  66
1
  70
0
  250
0
  0
VERTEX
  8
8
  10
510.913269
  20
829.180847
  0
VERTEX
  8
8
  10
510.188171
  20
811.195496
  0
SEQEND
  0
POINT
  8
2
  10
510.913269
  20
829.180847
  0
POLYLINE
  8
8
  66
1
  70
0
  250
0
  0
VERTEX
  8
8
  10
519.543640
  20
819.825867
  0
VERTEX
  8
8
  10
501.557861
  20
820.550476
  0
SEQEND
  0
POINT
  8
2
  10
519.543640
  20
819.825867
  0
ENDBLK
  0
BLOCK
  8
0
  2
BLK_9_1_M
  70
64
  10
0
  20
0
  0
TEXT
  8
1
  10
1075.613525
  20
781.870483
  50
0.000000
  51
0.000000
  71
0.000000
  1
PIECE NAME: BLK_9_1
  0
TEXT
  8
1
  10
1075.613525
  20
776.870483
  50
0.000000
  51
0.000000
  71
0.000000
  1
SIZE: M
  0
TEXT
  8
1
  10
1075.613525
  20
771.870483
  50
0.000000
  51
0.000000
  71
0.000000
  1
ANNOTATION: 
  0
TEXT
  8
1
  10
1075.613525
  20
766.870483
  50
0.000000
  51
0.000000
  71
0.000000
  1
QUANTITY: 1
  0
POLYLINE
  8
1
  66
1
  70
1
  250
2
  0
VERTEX
  8
1
  10
969.057861
  20
767.035889
  0
VERTEX
  8
1
  10
973.802673
  20
786.464966
  0
VERTEX
  8
1
  10
977.619507
  20
786.130737
  0
VERTEX
  8
1
  10
981.435669
  20
785.800476
  0
VERTEX
  8
1
  10
985.251282
  20
785.478333
  0
VERTEX
  8
1
  10
989.066528
  20
785.168579
  0
VERTEX
  8
1
  10
992.881531
  20
784.875183
  0
VERTEX
  8
1
  10
996.696472
  20
784.602356
  0
VERTEX
  8
1
  10
1000.511536
  20
784.354248
  0
VERTEX
  8
1
  10
1004.326843
  20
784.134888
  0
VERTEX
  8
1
  10
1008.142517
  20
783.948547
  0
VERTEX
  8
1
  10
1011.958801
  20
783.799316
  0
VERTEX
  8
1
  10
1015.775757
  20
783.691284
  0
VERTEX
  8
1
  10
1019.593628
  20
783.628601
  0
VERTEX
  8
1
  10
1023.412537
  20
783.615417
  0
VERTEX
  8
1
  10
1026.721558
  20
783.646362
  0
VERTEX
  8
1
  10
1030.030273
  20
783.715637
  0
VERTEX
  8
1
  10
1033.338257
  20
783.821289
  0
VERTEX
  8
1
  10
1036.645630
  20
783.961670
  0
VERTEX
  8
1
  10
1039.952271
  20
784.134888
  0
VERTEX
  8
1
  10
1043.257935
  20
784.339111
  0
VERTEX
  8
1
  10
1046.562744
  20
784.572510
  0
VERTEX
  8
1
  10
1049.866577
  20
784.833374
  0
VERTEX
  8
1
  10
1053.169189
  20
785.119812
  0
VERTEX
  8
1
  10
1056.470459
  20
785.430054
  0
VERTEX
  8
1
  10
1059.770508
  20
785.762268
  0
VERTEX
  8
1
  10
1063.069214
  20
786.114624
  0
VERTEX
  8
1
  10
1066.366333
  20
786.485291
  0
VERTEX
  8
1
  10
1069.661743
  20
786.872559
  0
VERTEX
  8
1
  10
1072.955566
  20
787.274475
  0
VERTEX
  8
1
  10
1077.394043
  20
787.837646
  0
VERTEX
  8
1
  10
1081.826660
  20
788.426025
  0
VERTEX
  8
1
  10
1086.253174
  20
789.041687
  0
VERTEX
  8
1
  10
1090.673828
  20
789.686646
  0
VERTEX
  8
1
  10
1095.088379
  20
790.363037
  0
VERTEX
  8
1
  10
1099.496826
  20
791.072998
  0
VERTEX
  8
1
  10
1103.899292
  20
791.818481
  0
VERTEX
  8
1
  10
1108.295410
  20
792.601563
  0
VERTEX
  8
1
  10
1112.685547
  20
793.424438
  0
VERTEX
  8
1
  10
1118.319336
  20
794.541321
  0
VERTEX
  8
1
  10
1123.940674
  20
795.715698
  0
VERTEX
  8
1
  10
1129.552246
  20
796.936890
  0
VERTEX
  8
1
  10
1135.156494
  20
798.193848
  0
VERTEX
  8
1
  10
1140.756104
  20
799.475891
  0
VERTEX
  8
1
  10
1146.353760
  20
800.772095
  0
VERTEX
  8
1
  10
1151.952026
  20
802.071655
  0
VERTEX
  8
1
  10
1171.440674
  20
806.556091
  0
VERTEX
  8
1
  10
1182.169312
  20
762.854187
  0
VERTEX
  8
1
  10
1177.752563
  20
762.326782
  0
VERTEX
  8
1
  10
1173.336304
  20
761.803650
  0
VERTEX
  8
1
  10
1168.920410
  20
761.289001
  0
VERTEX
  8
1
  10
1164.504395
  20
760.787048
  0
VERTEX
  8
1
  10
1160.087891
  20
760.302063
  0
VERTEX
  8
1
  10
1155.670288
  20
759.838318
  0
VERTEX
  8
1
  10
1151.251465
  20
759.400024
  0
VERTEX
  8
1
  10
1146.830811
  20
758.991394
  0
VERTEX
  8
1
  10
1142.407959
  20
758.616821
  0
VERTEX
  8
1
  10
1137.982544
  20
758.280396
  0
VERTEX
  8
1
  10
1133.554199
  20
757.986389
  0
VERTEX
  8
1
  10
1129.122437
  20
757.739136
  0
VERTEX
  8
1
  10
1125.029175
  20
757.554932
  0
VERTEX
  8
1
  10
1120.934570
  20
757.411316
  0
VERTEX
  8
1
  10
1116.838745
  20
757.305359
  0
VERTEX
  8
1
  10
1112.741699
  20
757.234192
  0
VERTEX
  8
1
  10
1108.643677
  20
757.195007
  0
VERTEX
  8
1
  10
1104.544556
  20
757.184937
  0
VERTEX
  8
1
  10
1100.444580
  20
757.201111
  0
VERTEX
  8
1
  10
1096.343628
  20
757.240662
  0
VERTEX
  8
1
  10
1092.241943
  20
757.300781
  0
VERTEX
  8
1
  10
1088.139648
  20
757.378662
  0
VERTEX
  8
1
  10
1084.036621
  20
757.471313
  0
VERTEX
  8
1
  10
1079.933105
  20
757.575989
  0
VERTEX
  8
1
  10
1075.829102
  20
757.689758
  0
VERTEX
  8
1
  10
1071.356201
  20
757.821899
  0
VERTEX
  8
1
  10
1066.885010
  20
757.963928
  0
VERTEX
  8
1
  10
1062.415649
  20
758.118408
  0
VERTEX
  8
1
  10
1057.948120
  20
758.287781
  0
VERTEX
  8
1
  10
1053.482544
  20
758.474609
  0
VERTEX
  8
1
  10
1049.018799
  20
758.681335
  0
VERTEX
  8
1
  10
1044.557007
  20
758.910400
  0
VERTEX
  8
1
  10
1040.097168
  20
759.164429
  0
VERTEX
  8
1
  10
1035.639404
  20
759.445923
  0
VERTEX
  8
1
  10
1031.183716
  20
759.757202
  0
VERTEX
  8
1
  10
1026.730103
  20
760.100952
  0
VERTEX
  8
1
  10
1022.278687
  20
760.479614
  0
VERTEX
  8
1
  10
1016.941284
  20
760.981873
  0
VERTEX
  8
1
  10
1011.609314
  20
761.532593
  0
VERTEX
  8
1
  10
1006.282104
  20
762.126343
  0
VERTEX
  8
1
  10
1000.958862
  20
762.757690
  0
VERTEX
  8
1
  10
995.638733
  20
763.421387
  0
VERTEX
  8
1
  10
990.320984
  20
764.111938
  0
VERTEX
  8
1
  10
985.004822
  20
764.824097
  0
VERTEX
  8
1
  10
979.689392
  20
765.552368
  0
VERTEX
  8
1
  10
974.374023
  20
766.291443
  0
SEQEND
  0
POINT
  8
2
  10
969.057861
  20
767.035889
  0
POINT
  8
2
  10
973.802673
  20
786.464966
  0
POINT
  8
2
  10
1171.440674
  20
806.556091
  0
POINT
  8
2
  10
1182.169312
  20
762.854187
  0
POINT
  8
3
  10
977.619507
  20
786.130737
  0
POINT
  8
3
  10
981.435669
  20
785.800476
  0
POINT
  8
3
  10
985.251282
  20
785.478333
  0
POINT
  8
3
  10
989.066528
  20
785.168579
  0
POINT
  8
3
  10
992.881531
  20
784.875183
  0
POINT
  8
3
  10
996.696472
  20
784.602356
  0
POINT
  8
3
  10
1000.511536
  20
784.354248
  0
POINT
  8
3
  10
1004.326843
  20
784.134888
  0
POINT
  8
3
  10
1008.142517
  20
783.948547
  0
POINT
  8
3
  10
1011.958801
  20
783.799316
  0
POINT
  8
3
  10
1015.775757
  20
783.691284
  0
POINT
  8
3
  10
1019.593628
  20
783.628601
  0
POINT
  8
3
  10
1023.412537
  20
783.615417
  0
POINT
  8
3
  10
1026.721558
  20
783.646362
  0
POINT
  8
3
  10
1030.030273
  20
783.715637
  0
POINT
  8
3
  10
1033.338257
  20
783.821289
  0
POINT
  8
3
  10
1036.645630
  20
783.961670
  0
POINT
  8
3
  10
1039.952271
  20
784.134888
  0
POINT
  8
3
  10
1043.257935
  20
784.339111
  0
POINT
  8
3
  10
1046.562744
  20
784.572510
  0
POINT
  8
3
  10
1049.866577
  20
784.833374
  0
POINT
  8
3
  10
1053.169189
  20
785.119812
  0
POINT
  8
3
  10
1056.470459
  20
785.430054
  0
POINT
  8
3
  10
1059.770508
  20
785.762268
  0
POINT
  8
3
  10
1063.069214
  20
786.114624
  0
POINT
  8
3
  10
1066.366333
  20
786.485291
  0
POINT
  8
3
  10
1069.661743
  20
786.872559
  0
POINT
  8
3
  10
1072.955566
  20
787.274475
  0
POINT
  8
3
  10
1077.394043
  20
787.837646
  0
POINT
  8
3
  10
1081.826660
  20
788.426025
  0
POINT
  8
3
  10
1086.253174
  20
789.041687
  0
POINT
  8
3
  10
1090.673828
  20
789.686646
  0
POINT
  8
3
  10
1095.088379
  20
790.363037
  0
POINT
  8
3
  10
1099.496826
  20
791.072998
  0
POINT
  8
3
  10
1103.899292
  20
791.818481
  0
POINT
  8
3
  10
1108.295410
  20
792.601563
  0
POINT
  8
3
  10
1112.685547
  20
793.424438
  0
POINT
  8
3
  10
1118.319336
  20
794.541321
  0
POINT
  8
3
  10
1123.940674
  20
795.715698
  0
POINT
  8
3
  10
1129.552246
  20
796.936890
  0
POINT
  8
3
  10
1135.156494
  20
798.193848
  0
POINT
  8
3
  10
1140.756104
  20
799.475891
  0
POINT
  8
3
  10
1146.353760
  20
800.772095
  0
POINT
  8
3
  10
1151.952026
  20
802.071655
  0
POINT
  8
3
  10
1177.752563
  20
762.326782
  0
POINT
  8
3
  10
1173.336304
  20
761.803650
  0
POINT
  8
3
  10
1168.920410
  20
761.289001
  0
POINT
  8
3
  10
1164.504395
  20
760.787048
  0
POINT
  8
3
  10
1160.087891
  20
760.302063
  0
POINT
  8
3
  10
1155.670288
  20
759.838318
  0
POINT
  8
3
  10
1151.251465
  20
759.400024
  0
POINT
  8
3
  10
1146.830811
  20
758.991394
  0
POINT
  8
3
  10
1142.407959
  20
758.616821
  0
POINT
  8
3
  10
1137.982544
  20
758.280396
  0
POINT
  8
3
  10
1133.554199
  20
757.986389
  0
POINT
  8
3
  10
1129.122437
  20
757.739136
  0
POINT
  8
3
  10
1125.029175
  20
757.554932
  0
POINT
  8
3
  10
1120.934570
  20
757.411316
  0
POINT
  8
3
  10
1116.838745
  20
757.305359
  0
POINT
  8
3
  10
1112.741699
  20
757.234192
  0
POINT
  8
3
  10
1108.643677
  20
757.195007
  0
POINT
  8
3
  10
1104.544556
  20
757.184937
  0
POINT
  8
3
  10
1100.444580
  20
757.201111
  0
POINT
  8
3
  10
1096.343628
  20
757.240662
  0
POINT
  8
3
  10
1092.241943
  20
757.300781
  0
POINT
  8
3
  10
1088.139648
  20
757.378662
  0
POINT
  8
3
  10
1084.036621
  20
757.471313
  0
POINT
  8
3
  10
1079.933105
  20
757.575989
  0
POINT
  8
3
  10
1075.829102
  20
757.689758
  0
POINT
  8
3
  10
1071.356201
  20
757.821899
  0
POINT
  8
3
  10
1066.885010
  20
757.963928
  0
POINT
  8
3
  10
1062.415649
  20
758.118408
  0
POINT
  8
3
  10
1057.948120
  20
758.287781
  0
POINT
  8
3
  10
1053.482544
  20
758.474609
  0
POINT
  8
3
  10
1049.018799
  20
758.681335
  0
POINT
  8
3
  10
1044.557007
  20
758.910400
  0
POINT
  8
3
  10
1040.097168
  20
759.164429
  0
POINT
  8
3
  10
1035.639404
  20
759.445923
  0
POINT
  8
3
  10
1031.183716
  20
759.757202
  0
POINT
  8
3
  10
1026.730103
  20
760.100952
  0
POINT
  8
3
  10
1022.278687
  20
760.479614
  0
POINT
  8
3
  10
1016.941284
  20
760.981873
  0
POINT
  8
3
  10
1011.609314
  20
761.532593
  0
POINT
  8
3
  10
1006.282104
  20
762.126343
  0
POINT
  8
3
  10
1000.958862
  20
762.757690
  0
POINT
  8
3
  10
995.638733
  20
763.421387
  0
POINT
  8
3
  10
990.320984
  20
764.111938
  0
POINT
  8
3
  10
985.004822
  20
764.824097
  0
POINT
  8
3
  10
979.689392
  20
765.552368
  0
POINT
  8
3
  10
974.374023
  20
766.291443
  0
LINE
  8
7
  10
1075.613525
  20
691.870483
  11
1075.613525
  21
871.870483
  0
POLYLINE
  8
8
  66
1
  70
0
  250
0
  0
VERTEX
  8
8
  10
1132.290283
  20
790.605774
  0
VERTEX
  8
8
  10
1132.290283
  20
758.311340
  0
SEQEND
  0
POINT
  8
2
  10
1132.290283
  20
790.605774
  0
ENDBLK
  0
BLOCK
  8
0
  2
Pattern2D_1036393_M
  70
64
  10
0
  20
0
  0
TEXT
  8
1
  10
1068.258057
  20
867.540466
  50
0.000000
  51
0.000000
  71
0.000000
  1
PIECE NAME: Pattern2D_1036393
  0
TEXT
  8
1
  10
1068.258057
  20
862.540466
  50
0.000000
  51
0.000000
  71
0.000000
  1
SIZE: M
  0
TEXT
  8
1
  10
1068.258057
  20
857.540466
  50
0.000000
  51
0.000000
  71
0.000000
  1
ANNOTATION: 
  0
TEXT
  8
1
  10
1068.258057
  20
852.540466
  50
0.000000
  51
0.000000
  71
0.000000
  1
QUANTITY: 1
  0
POLYLINE
  8
1
  66
1
  70
1
  250
2
  0
VERTEX
  8
1
  10
1165.582275
  20
871.870544
  0
VERTEX
  8
1
  10
1159.195679
  20
871.956909
  0
VERTEX
  8
1
  10
1152.812134
  20
872.059265
  0
VERTEX
  8
1
  10
1146.430908
  20
872.194092
  0
VERTEX
  8
1
  10
1140.051636
  20
872.377747
  0
VERTEX
  8
1
  10
1133.673340
  20
872.626770
  0
VERTEX
  8
1
  10
1129.119385
  20
872.852356
  0
VERTEX
  8
1
  10
1124.568848
  20
873.118225
  0
VERTEX
  8
1
  10
1120.020996
  20
873.423279
  0
VERTEX
  8
1
  10
1115.475098
  20
873.766479
  0
VERTEX
  8
1
  10
1110.930664
  20
874.146851
  0
VERTEX
  8
1
  10
1106.386841
  20
874.563293
  0
VERTEX
  8
1
  10
1101.843262
  20
875.014832
  0
VERTEX
  8
1
  10
1098.906738
  20
875.324951
  0
VERTEX
  8
1
  10
1095.971680
  20
875.649902
  0
VERTEX
  8
1
  10
1093.038086
  20
875.990356
  0
VERTEX
  8
1
  10
1090.106445
  20
876.346985
  0
VERTEX
  8
1
  10
1087.177002
  20
876.720642
  0
VERTEX
  8
1
  10
1084.250244
  20
877.111938
  0
VERTEX
  8
1
  10
1081.326172
  20
877.521606
  0
VERTEX
  8
1
  10
1078.405518
  20
877.950439
  0
VERTEX
  8
1
  10
1075.488281
  20
878.399048
  0
VERTEX
  8
1
  10
1072.574829
  20
878.868286
  0
VERTEX
  8
1
  10
1069.665527
  20
879.358765
  0
VERTEX
  8
1
  10
1066.760742
  20
879.871216
  0
VERTEX
  8
1
  10
1063.860718
  20
880.406433
  0
VERTEX
  8
1
  10
1060.965820
  20
880.965027
  0
VERTEX
  8
1
  10
1058.076294
  20
881.547791
  0
VERTEX
  8
1
  10
1055.192627
  20
882.155457
  0
VERTEX
  8
1
  10
1052.314941
  20
882.788696
  0
VERTEX
  8
1
  10
1049.443604
  20
883.448303
  0
VERTEX
  8
1
  10
1046.578979
  20
884.134888
  0
VERTEX
  8
1
  10
1043.721313
  20
884.849243
  0
VERTEX
  8
1
  10
1040.159302
  20
885.781799
  0
VERTEX
  8
1
  10
1036.609253
  20
886.755859
  0
VERTEX
  8
1
  10
1033.070190
  20
887.768799
  0
VERTEX
  8
1
  10
1029.541504
  20
888.817749
  0
VERTEX
  8
1
  10
1026.022217
  20
889.900024
  0
VERTEX
  8
1
  10
1022.511475
  20
891.012817
  0
VERTEX
  8
1
  10
1019.008545
  20
892.153381
  0
VERTEX
  8
1
  10
1015.512451
  20
893.318848
  0
VERTEX
  8
1
  10
1012.022461
  20
894.506592
  0
VERTEX
  8
1
  10
1008.537720
  20
895.713806
  0
VERTEX
  8
1
  10
1005.057312
  20
896.937622
  0
VERTEX
  8
1
  10
1001.580444
  20
898.175415
  0
VERTEX
  8
1
  10
998.106323
  20
899.424377
  0
VERTEX
  8
1
  10
994.634033
  20
900.681702
  0
VERTEX
  8
1
  10
991.162720
  20
901.944580
  0
VERTEX
  8
1
  10
987.691650
  20
903.210388
  0
VERTEX
  8
1
  10
970.933838
  20
866.779846
  0
VERTEX
  8
1
  10
978.088745
  20
864.142761
  0
VERTEX
  8
1
  10
985.248352
  20
861.526611
  0
VERTEX
  8
1
  10
992.422546
  20
858.950867
  0
VERTEX
  8
1
  10
999.621399
  20
856.434937
  0
VERTEX
  8
1
  10
1003.747986
  20
855.032104
  0
VERTEX
  8
1
  10
1007.883667
  20
853.659790
  0
VERTEX
  8
1
  10
1012.029602
  20
852.321533
  0
VERTEX
  8
1
  10
1016.187134
  20
851.020935
  0
VERTEX
  8
1
  10
1020.357422
  20
849.761597
  0
VERTEX
  8
1
  10
1024.541748
  20
848.547241
  0
VERTEX
  8
1
  10
1028.741455
  20
847.381348
  0
VERTEX
  8
1
  10
1031.409180
  20
846.669678
  0
VERTEX
  8
1
  10
1034.082397
  20
845.978882
  0
VERTEX
  8
1
  10
1036.760742
  20
845.308838
  0
VERTEX
  8
1
  10
1039.444336
  20
844.659241
  0
VERTEX
  8
1
  10
1042.132813
  20
844.029907
  0
VERTEX
  8
1
  10
1044.825928
  20
843.420532
  0
VERTEX
  8
1
  10
1047.523682
  20
842.830994
  0
VERTEX
  8
1
  10
1050.225830
  20
842.260925
  0
VERTEX
  8
1
  10
1052.932129
  20
841.710205
  0
VERTEX
  8
1
  10
1055.642456
  20
841.178467
  0
VERTEX
  8
1
  10
1058.356567
  20
840.665588
  0
VERTEX
  8
1
  10
1061.074463
  20
840.171265
  0
VERTEX
  8
1
  10
1063.795776
  20
839.695313
  0
VERTEX
  8
1
  10
1066.520386
  20
839.237488
  0
VERTEX
  8
1
  10
1069.248169
  20
838.797485
  0
VERTEX
  8
1
  10
1071.978882
  20
838.375183
  0
VERTEX
  8
1
  10
1074.712280
  20
837.970215
  0
VERTEX
  8
1
  10
1077.448364
  20
837.582458
  0
VERTEX
  8
1
  10
1080.186890
  20
837.211609
  0
VERTEX
  8
1
  10
1082.927612
  20
836.857422
  0
VERTEX
  8
1
  10
1085.670288
  20
836.519714
  0
VERTEX
  8
1
  10
1088.415039
  20
836.198242
  0
VERTEX
  8
1
  10
1091.161377
  20
835.892700
  0
VERTEX
  8
1
  10
1093.909180
  20
835.602966
  0
VERTEX
  8
1
  10
1096.658447
  20
835.328674
  0
VERTEX
  8
1
  10
1100.957764
  20
834.930420
  0
VERTEX
  8
1
  10
1105.258301
  20
834.567444
  0
VERTEX
  8
1
  10
1109.560181
  20
834.237488
  0
VERTEX
  8
1
  10
1113.863159
  20
833.938171
  0
VERTEX
  8
1
  10
1118.167480
  20
833.666992
  0
VERTEX
  8
1
  10
1122.472778
  20
833.421753
  0
VERTEX
  8
1
  10
1126.779297
  20
833.200012
  0
VERTEX
  8
1
  10
1131.086914
  20
832.999390
  0
VERTEX
  8
1
  10
1135.395508
  20
832.817505
  0
VERTEX
  8
1
  10
1139.705200
  20
832.651978
  0
VERTEX
  8
1
  10
1144.015869
  20
832.500549
  0
VERTEX
  8
1
  10
1148.327393
  20
832.360718
  0
VERTEX
  8
1
  10
1152.639893
  20
832.230164
  0
VERTEX
  8
1
  10
1156.953125
  20
832.106567
  0
VERTEX
  8
1
  10
1161.267334
  20
831.987488
  0
VERTEX
  8
1
  10
1165.582275
  20
831.870544
  0
SEQEND
  0
POINT
  8
2
  10
1165.582275
  20
871.870544
  0
POINT
  8
2
  10
987.691650
  20
903.210388
  0
POINT
  8
2
  10
970.933838
  20
866.779846
  0
POINT
  8
2
  10
1165.582275
  20
831.870544
  0
POINT
  8
3
  10
1159.195679
  20
871.956909
  0
POINT
  8
3
  10
1152.812134
  20
872.059265
  0
POINT
  8
3
  10
1146.430908
  20
872.194092
  0
POINT
  8
3
  10
1140.051636
  20
872.377747
  0
POINT
  8
3
  10
1133.673340
  20
872.626770
  0
POINT
  8
3
  10
1129.119385
  20
872.852356
  0
POINT
  8
3
  10
1124.568848
  20
873.118225
  0
POINT
  8
3
  10
1120.020996
  20
873.423279
  0
POINT
  8
3
  10
1115.475098
  20
873.766479
  0
POINT
  8
3
  10
1110.930664
  20
874.146851
  0
POINT
  8
3
  10
1106.386841
  20
874.563293
  0
POINT
  8
3
  10
1101.843262
  20
875.014832
  0
POINT
  8
3
  10
1098.906738
  20
875.324951
  0
POINT
  8
3
  10
1095.971680
  20
875.649902
  0
POINT
  8
3
  10
1093.038086
  20
875.990356
  0
POINT
  8
3
  10
1090.106445
  20
876.346985
  0
POINT
  8
3
  10
1087.177002
  20
876.720642
  0
POINT
  8
3
  10
1084.250244
  20
877.111938
  0
POINT
  8
3
  10
1081.326172
  20
877.521606
  0
POINT
  8
3
  10
1078.405518
  20
877.950439
  0
POINT
  8
3
  10
1075.488281
  20
878.399048
  0
POINT
  8
3
  10
1072.574829
  20
878.868286
  0
POINT
  8
3
  10
1069.665527
  20
879.358765
  0
POINT
  8
3
  10
1066.760742
  20
879.871216
  0
POINT
  8
3
  10
1063.860718
  20
880.406433
  0
POINT
  8
3
  10
1060.965820
  20
880.965027
  0
POINT
  8
3
  10
1058.076294
  20
881.547791
  0
POINT
  8
3
  10
1055.192627
  20
882.155457
  0
POINT
  8
3
  10
1052.314941
  20
882.788696
  0
POINT
  8
3
  10
1049.443604
  20
883.448303
  0
POINT
  8
3
  10
1046.578979
  20
884.134888
  0
POINT
  8
3
  10
1043.721313
  20
884.849243
  0
POINT
  8
3
  10
1040.159302
  20
885.781799
  0
POINT
  8
3
  10
1036.609253
  20
886.755859
  0
POINT
  8
3
  10
1033.070190
  20
887.768799
  0
POINT
  8
3
  10
1029.541504
  20
888.817749
  0
POINT
  8
3
  10
1026.022217
  20
889.900024
  0
POINT
  8
3
  10
1022.511475
  20
891.012817
  0
POINT
  8
3
  10
1019.008545
  20
892.153381
  0
POINT
  8
3
  10
1015.512451
  20
893.318848
  0
POINT
  8
3
  10
1012.022461
  20
894.506592
  0
POINT
  8
3
  10
1008.537720
  20
895.713806
  0
POINT
  8
3
  10
1005.057312
  20
896.937622
  0
POINT
  8
3
  10
1001.580444
  20
898.175415
  0
POINT
  8
3
  10
998.106323
  20
899.424377
  0
POINT
  8
3
  10
994.634033
  20
900.681702
  0
POINT
  8
3
  10
991.162720
  20
901.944580
  0
POINT
  8
3
  10
978.088745
  20
864.142761
  0
POINT
  8
3
  10
985.248352
  20
861.526611
  0
POINT
  8
3
  10
992.422546
  20
858.950867
  0
POINT
  8
3
  10
999.621399
  20
856.434937
  0
POINT
  8
3
  10
1003.747986
  20
855.032104
  0
POINT
  8
3
  10
1007.883667
  20
853.659790
  0
POINT
  8
3
  10
1012.029602
  20
852.321533
  0
POINT
  8
3
  10
1016.187134
  20
851.020935
  0
POINT
  8
3
  10
1020.357422
  20
849.761597
  0
POINT
  8
3
  10
1024.541748
  20
848.547241
  0
POINT
  8
3
  10
1028.741455
  20
847.381348
  0
POINT
  8
3
  10
1031.409180
  20
846.669678
  0
POINT
  8
3
  10
1034.082397
  20
845.978882
  0
POINT
  8
3
  10
1036.760742
  20
845.308838
  0
POINT
  8
3
  10
1039.444336
  20
844.659241
  0
POINT
  8
3
  10
1042.132813
  20
844.029907
  0
POINT
  8
3
  10
1044.825928
  20
843.420532
  0
POINT
  8
3
  10
1047.523682
  20
842.830994
  0
POINT
  8
3
  10
1050.225830
  20
842.260925
  0
POINT
  8
3
  10
1052.932129
  20
841.710205
  0
POINT
  8
3
  10
1055.642456
  20
841.178467
  0
POINT
  8
3
  10
1058.356567
  20
840.665588
  0
POINT
  8
3
  10
1061.074463
  20
840.171265
  0
POINT
  8
3
  10
1063.795776
  20
839.695313
  0
POINT
  8
3
  10
1066.520386
  20
839.237488
  0
POINT
  8
3
  10
1069.248169
  20
838.797485
  0
POINT
  8
3
  10
1071.978882
  20
838.375183
  0
POINT
  8
3
  10
1074.712280
  20
837.970215
  0
POINT
  8
3
  10
1077.448364
  20
837.582458
  0
POINT
  8
3
  10
1080.186890
  20
837.211609
  0
POINT
  8
3
  10
1082.927612
  20
836.857422
  0
POINT
  8
3
  10
1085.670288
  20
836.519714
  0
POINT
  8
3
  10
1088.415039
  20
836.198242
  0
POINT
  8
3
  10
1091.161377
  20
835.892700
  0
POINT
  8
3
  10
1093.909180
  20
835.602966
  0
POINT
  8
3
  10
1096.658447
  20
835.328674
  0
POINT
  8
3
  10
1100.957764
  20
834.930420
  0
POINT
  8
3
  10
1105.258301
  20
834.567444
  0
POINT
  8
3
  10
1109.560181
  20
834.237488
  0
POINT
  8
3
  10
1113.863159
  20
833.938171
  0
POINT
  8
3
  10
1118.167480
  20
833.666992
  0
POINT
  8
3
  10
1122.472778
  20
833.421753
  0
POINT
  8
3
  10
1126.779297
  20
833.200012
  0
POINT
  8
3
  10
1131.086914
  20
832.999390
  0
POINT
  8
3
  10
1135.395508
  20
832.817505
  0
POINT
  8
3
  10
1139.705200
  20
832.651978
  0
POINT
  8
3
  10
1144.015869
  20
832.500549
  0
POINT
  8
3
  10
1148.327393
  20
832.360718
  0
POINT
  8
3
  10
1152.639893
  20
832.230164
  0
POINT
  8
3
  10
1156.953125
  20
832.106567
  0
POINT
  8
3
  10
1161.267334
  20
831.987488
  0
LINE
  8
7
  10
1068.258057
  20
777.540466
  11
1068.258057
  21
957.540466
  0
POLYLINE
  8
8
  66
1
  70
0
  250
0
  0
VERTEX
  8
8
  10
1107.611084
  20
829.341797
  0
VERTEX
  8
8
  10
1108.406982
  20
842.975220
  0
SEQEND
  0
POINT
  8
2
  10
1107.611084
  20
829.341797
  0
ENDBLK
  0
ENDSEC
  0
SECTION
  2
ENTITIES
  0
INSERT
  8
1
  2
BLK_1_1_M
  10
0.000000
  20
0.000000
  0
INSERT
  8
1
  2
BLK_2_1_M
  10
0.000000
  20
0.000000
  0
INSERT
  8
1
  2
BLK_5_1_M
  10
0.000000
  20
0.000000
  0
INSERT
  8
1
  2
BLK_7_1_M
  10
0.000000
  20
0.000000
  0
INSERT
  8
1
  2
BLK_8_1_M
  10
0.000000
  20
0.000000
  0
INSERT
  8
1
  2
BLK_9_1_M
  10
0.000000
  20
0.000000
  0
INSERT
  8
1
  2
Pattern2D_1036393_M
  10
0.000000
  20
0.000000
  0
TEXT
  8
1
  10
0.000000
  20
0.000000
  40
0.250000
  50
0.000000
  1
STYLE NAME: Pants_woman
  7
STANDARD
  0
TEXT
  8
1
  10
0.000000
  20
0.000000
  40
0.250000
  50
0.000000
  1
CREATION DATE: 07-10-2016
  7
STANDARD
  0
TEXT
  8
1
  10
0.000000
  20
0.000000
  40
0.250000
  50
0.000000
  1
CREATION TIME: 11:40
  7
STANDARD
  0
TEXT
  8
1
  10
0.000000
  20
0.000000
  40
0.250000
  50
0.000000
  1
AUTHOR: CLO Virtual Fashion Inc.
  7
STANDARD
  0
TEXT
  8
1
  10
0.000000
  20
0.000000
  40
0.250000
  50
0.000000
  1
PRODUCT: CLO Enterprise OnlineAuth 2.6.28
  7
STANDARD
  0
TEXT
  8
1
  10
0.000000
  20
0.000000
  40
0.250000
  50
0.000000
  1
VERSION: 3
  7
STANDARD
  0
TEXT
  8
1
  10
0.000000
  20
0.000000
  40
0.250000
  50
0.000000
  1
SAMPLE SIZE: M
  7
STANDARD
  0
TEXT
  8
1
  10
0.000000
  20
0.000000
  40
0.250000
  50
0.000000
  1
UNITS: METRIC
  7
STANDARD
  0
ENDSEC
  0
EOF
